<svg version="1.1" viewBox="0.0 0.0 720.0 420.0" fill="none" stroke="none" stroke-linecap="square" stroke-miterlimit="10" xmlns:xlink="http://www.w3.org/1999/xlink" xmlns="http://www.w3.org/2000/svg"><clipPath id="p.0"><path d="m0 0l960.0 0l0 720.0l-960.0 0l0 -720.0z" clip-rule="nonzero"/></clipPath><g clip-path="url(#p.0)"><path fill="#000000" fill-opacity="0.0" d="m0 0l960.0 0l0 720.0l-960.0 0z" fill-rule="evenodd"/><path fill="#cfe2f3" d="m114.70604 114.708664l449.60626 0l0 219.1811l-449.60626 0z" fill-rule="evenodd"/><path stroke="#000000" stroke-width="1.0" stroke-linejoin="round" stroke-linecap="butt" d="m114.70604 114.708664l449.60626 0l0 219.1811l-449.60626 0z" fill-rule="evenodd"/><path fill="#000000" fill-opacity="0.0" d="m114.70604 114.708664l140.31496 0l0 43.02362l-140.31496 0z" fill-rule="evenodd"/><path fill="#000000" d="m123.79979 128.26929l1.78125 0l4.359375 8.1875l3.796875 -8.1875l1.765625 0l-5.015625 10.390625q-0.9375 1.953125 -1.546875 2.5625q-0.59375 0.59375 -1.703125 0.59375q-0.6875 0 -1.6875 -0.328125l0 -1.515625q0.71875 0.421875 1.515625 0.421875q0.640625 0 1.109375 -0.40625q0.46875 -0.421875 1.03125 -1.90625l-5.40625 -9.8125zm15.132706 8.984375l0 -1.28125q1.03125 -0.015625 1.40625 -0.078125q0.390625 -0.078125 0.71875 -0.4375q0.34375 -0.375 0.34375 -0.921875q0 -0.65625 -0.453125 -1.046875q-0.4375 -0.40625 -1.140625 -0.40625q-1.375 0 -1.9375 1.625l-1.5625 -0.25q0.734375 -2.71875 3.515625 -2.71875q1.5625 0 2.4375 0.84375q0.875 0.84375 0.875 2.03125q0 1.171875 -1.140625 1.875q0.71875 0.390625 1.078125 1.0q0.375 0.609375 0.375 1.4375q0 1.296875 -0.953125 2.109375q-0.9375 0.8125 -2.640625 0.8125q-3.3125 0 -3.84375 -2.9375l1.546875 -0.328125q0.203125 0.921875 0.84375 1.4375q0.640625 0.5 1.46875 0.5q0.828125 0 1.375 -0.46875q0.5625 -0.46875 0.5625 -1.1875q0 -0.5625 -0.34375 -0.984375q-0.34375 -0.421875 -0.75 -0.515625q-0.390625 -0.109375 -1.40625 -0.109375q-0.09375 0 -0.375 0zm13.038193 1.265625l1.6875 0.203125q-0.40625 1.484375 -1.484375 2.3125q-1.078125 0.8125 -2.765625 0.8125q-2.125 0 -3.375 -1.296875q-1.234375 -1.3125 -1.234375 -3.671875q0 -2.453125 1.25 -3.796875q1.265625 -1.34375 3.265625 -1.34375q1.9375 0 3.15625 1.328125q1.234375 1.3125 1.234375 3.703125q0 0.15625 0 0.4375l-7.21875 0q0.09375 1.59375 0.90625 2.453125q0.8125 0.84375 2.015625 0.84375q0.90625 0 1.546875 -0.46875q0.640625 -0.484375 1.015625 -1.515625zm-5.390625 -2.65625l5.40625 0q-0.109375 -1.21875 -0.625 -1.828125q-0.78125 -0.953125 -2.03125 -0.953125q-1.125 0 -1.90625 0.765625q-0.765625 0.75 -0.84375 2.015625zm9.938217 -3.90625l7.609375 0l0 9.671875l-1.625 0l0 -8.3125l-4.34375 0l0 4.8125q0 1.6875 -0.109375 2.234375q-0.109375 0.53125 -0.609375 0.9375q-0.484375 0.390625 -1.40625 0.390625q-0.578125 0 -1.328125 -0.078125l0 -1.359375l0.71875 0q0.515625 0 0.734375 -0.09375q0.21875 -0.109375 0.28125 -0.34375q0.078125 -0.234375 0.078125 -1.484375l0 -6.375zm18.397278 13.59375q-1.359375 -1.703125 -2.296875 -4.0q-0.9375 -2.296875 -0.9375 -4.765625q0 -2.15625 0.703125 -4.140625q0.828125 -2.3125 2.53125 -4.59375l1.171875 0q-1.09375 1.890625 -1.453125 2.703125q-0.546875 1.25 -0.875 2.625q-0.390625 1.703125 -0.390625 3.421875q0 4.375 2.71875 8.75l-1.171875 0zm3.087677 -3.921875l0 -9.671875l1.46875 0l0 1.375q1.0625 -1.59375 3.078125 -1.59375q0.875 0 1.609375 0.3125q0.734375 0.3125 1.09375 0.828125q0.375 0.5 0.515625 1.203125q0.09375 0.453125 0.09375 1.59375l0 5.953125l-1.640625 0l0 -5.890625q0 -1.0 -0.203125 -1.484375q-0.1875 -0.5 -0.671875 -0.796875q-0.484375 -0.296875 -1.140625 -0.296875q-1.046875 0 -1.8125 0.671875q-0.75 0.65625 -0.75 2.515625l0 5.28125l-1.640625 0zm9.766342 -4.84375q0 -2.6875 1.484375 -3.96875q1.25 -1.078125 3.046875 -1.078125q2.0 0 3.265625 1.3125q1.265625 1.296875 1.265625 3.609375q0 1.859375 -0.5625 2.9375q-0.5625 1.0625 -1.640625 1.65625q-1.0625 0.59375 -2.328125 0.59375q-2.03125 0 -3.28125 -1.296875q-1.25 -1.3125 -1.25 -3.765625zm1.6875 0q0 1.859375 0.796875 2.796875q0.8125 0.921875 2.046875 0.921875q1.21875 0 2.03125 -0.921875q0.8125 -0.9375 0.8125 -2.84375q0 -1.796875 -0.8125 -2.71875q-0.8125 -0.921875 -2.03125 -0.921875q-1.234375 0 -2.046875 0.921875q-0.796875 0.90625 -0.796875 2.765625zm15.563217 4.84375l0 -1.21875q-0.90625 1.4375 -2.703125 1.4375q-1.15625 0 -2.125 -0.640625q-0.96875 -0.640625 -1.5 -1.78125q-0.53125 -1.140625 -0.53125 -2.625q0 -1.453125 0.484375 -2.625q0.484375 -1.1875 1.4375 -1.8125q0.96875 -0.625 2.171875 -0.625q0.875 0 1.546875 0.375q0.6875 0.359375 1.109375 0.953125l0 -4.796875l1.640625 0l0 13.359375l-1.53125 0zm-5.171875 -4.828125q0 1.859375 0.78125 2.78125q0.78125 0.921875 1.84375 0.921875q1.078125 0 1.828125 -0.875q0.75 -0.890625 0.75 -2.6875q0 -1.984375 -0.765625 -2.90625q-0.765625 -0.9375 -1.890625 -0.9375q-1.078125 0 -1.8125 0.890625q-0.734375 0.890625 -0.734375 2.8125zm15.906967 1.71875l1.6875 0.203125q-0.40625 1.484375 -1.484375 2.3125q-1.078125 0.8125 -2.765625 0.8125q-2.125 0 -3.375 -1.296875q-1.234375 -1.3125 -1.234375 -3.671875q0 -2.453125 1.25 -3.796875q1.265625 -1.34375 3.265625 -1.34375q1.9375 0 3.15625 1.328125q1.234375 1.3125 1.234375 3.703125q0 0.15625 0 0.4375l-7.21875 0q0.09375 1.59375 0.90625 2.453125q0.8125 0.84375 2.015625 0.84375q0.90625 0 1.546875 -0.46875q0.640625 -0.484375 1.015625 -1.515625zm-5.390625 -2.65625l5.40625 0q-0.109375 -1.21875 -0.625 -1.828125q-0.78125 -0.953125 -2.03125 -0.953125q-1.125 0 -1.90625 0.765625q-0.765625 0.75 -0.84375 2.015625zm10.219467 9.6875l-1.1875 0q2.734375 -4.375 2.734375 -8.75q0 -1.71875 -0.390625 -3.390625q-0.3125 -1.375 -0.875 -2.625q-0.359375 -0.828125 -1.46875 -2.734375l1.1875 0q1.703125 2.28125 2.53125 4.59375q0.6875 1.984375 0.6875 4.140625q0 2.46875 -0.9375 4.765625q-0.9375 2.296875 -2.28125 4.0z" fill-rule="nonzero"/><path fill="#ff9900" d="m148.50656 156.70866l216.09448 0l0 50.173233l-216.09448 0z" fill-rule="evenodd"/><path stroke="#000000" stroke-width="1.0" stroke-linejoin="round" stroke-linecap="butt" d="m148.50656 156.70866l216.09448 0l0 50.173233l-216.09448 0z" fill-rule="evenodd"/><path fill="#000000" d="m176.98676 173.21527q0 -3.328125 1.78125 -5.203125q1.78125 -1.890625 4.609375 -1.890625q1.84375 0 3.328125 0.890625q1.484375 0.875 2.265625 2.46875q0.78125 1.578125 0.78125 3.578125q0 2.03125 -0.828125 3.640625q-0.8125 1.59375 -2.3125 2.421875q-1.5 0.828125 -3.25 0.828125q-1.875 0 -3.359375 -0.90625q-1.484375 -0.921875 -2.25 -2.5q-0.765625 -1.578125 -0.765625 -3.328125zm1.8125 0.015625q0 2.421875 1.296875 3.8125q1.296875 1.390625 3.265625 1.390625q2.0 0 3.28125 -1.40625q1.28125 -1.40625 1.28125 -3.984375q0 -1.625 -0.546875 -2.84375q-0.546875 -1.21875 -1.609375 -1.875q-1.0625 -0.671875 -2.375 -0.671875q-1.890625 0 -3.25 1.296875q-1.34375 1.28125 -1.34375 4.28125zm12.136429 -3.1875l7.859375 0l0 1.359375l-3.109375 0l0 8.3125l-1.625 0l0 -8.3125l-3.125 0l0 -1.359375zm15.747833 6.125l1.609375 0.21875q-0.265625 1.65625 -1.359375 2.609375q-1.078125 0.9375 -2.671875 0.9375q-1.984375 0 -3.1875 -1.296875q-1.203125 -1.296875 -1.203125 -3.71875q0 -1.578125 0.515625 -2.75q0.515625 -1.171875 1.578125 -1.75q1.0625 -0.59375 2.3125 -0.59375q1.578125 0 2.578125 0.796875q1.0 0.796875 1.28125 2.265625l-1.59375 0.234375q-0.234375 -0.96875 -0.8125 -1.453125q-0.578125 -0.5 -1.390625 -0.5q-1.234375 0 -2.015625 0.890625q-0.78125 0.890625 -0.78125 2.8125q0 1.953125 0.75 2.84375q0.75 0.875 1.953125 0.875q0.96875 0 1.609375 -0.59375q0.65625 -0.59375 0.828125 -1.828125zm9.640625 0.4375l1.6875 0.203125q-0.40625 1.484375 -1.484375 2.3125q-1.078125 0.8125 -2.765625 0.8125q-2.125 0 -3.375 -1.296875q-1.234375 -1.3125 -1.234375 -3.671875q0 -2.453125 1.25 -3.796875q1.265625 -1.34375 3.265625 -1.34375q1.9375 0 3.15625 1.328125q1.234375 1.3125 1.234375 3.703125q0 0.15625 0 0.4375l-7.21875 0q0.09375 1.59375 0.90625 2.453125q0.8125 0.84375 2.015625 0.84375q0.90625 0 1.546875 -0.46875q0.640625 -0.484375 1.015625 -1.515625zm-5.390625 -2.65625l5.40625 0q-0.109375 -1.21875 -0.625 -1.828125q-0.78125 -0.953125 -2.03125 -0.953125q-1.125 0 -1.90625 0.765625q-0.765625 0.75 -0.84375 2.015625zm9.125717 -3.90625l1.640625 0l0 4.171875q0.78125 0 1.09375 -0.296875q0.3125 -0.296875 0.921875 -1.75q0.484375 -1.140625 0.78125 -1.5q0.3125 -0.375 0.703125 -0.5q0.390625 -0.125 1.25 -0.125l0.328125 0l0 1.359375l-0.453125 -0.015625q-0.640625 0 -0.828125 0.1875q-0.1875 0.203125 -0.578125 1.203125q-0.375 0.9375 -0.6875 1.3125q-0.3125 0.359375 -0.953125 0.65625q1.0625 0.28125 2.078125 1.96875l1.796875 3.0l-1.8125 0l-1.75 -3.0q-0.53125 -0.90625 -0.9375 -1.1875q-0.390625 -0.28125 -0.953125 -0.28125l0 4.46875l-1.640625 0l0 -9.671875zm13.361038 0l1.640625 0l0 7.375l4.546875 -7.375l1.765625 0l0 9.671875l-1.640625 0l0 -7.328125l-4.546875 7.328125l-1.765625 0l0 -9.671875zm15.5889435 0l1.640625 0l0 4.171875q0.78125 0 1.09375 -0.296875q0.3125 -0.296875 0.921875 -1.75q0.484375 -1.140625 0.78125 -1.5q0.3125 -0.375 0.703125 -0.5q0.390625 -0.125 1.25 -0.125l0.328125 0l0 1.359375l-0.453125 -0.015625q-0.640625 0 -0.828125 0.1875q-0.1875 0.203125 -0.578125 1.203125q-0.375 0.9375 -0.6875 1.3125q-0.3125 0.359375 -0.953125 0.65625q1.0625 0.28125 2.078125 1.96875l1.796875 3.0l-1.8125 0l-1.75 -3.0q-0.53125 -0.90625 -0.9375 -1.1875q-0.390625 -0.28125 -0.953125 -0.28125l0 4.46875l-1.640625 0l0 -9.671875zm7.5683594 4.828125q0 -2.6875 1.484375 -3.96875q1.25 -1.078125 3.046875 -1.078125q2.0 0 3.265625 1.3125q1.265625 1.296875 1.265625 3.609375q0 1.859375 -0.5625 2.9375q-0.5625 1.0625 -1.640625 1.65625q-1.0625 0.59375 -2.328125 0.59375q-2.03125 0 -3.28125 -1.296875q-1.25 -1.3125 -1.25 -3.765625zm1.6875 0q0 1.859375 0.796875 2.796875q0.8125 0.921875 2.046875 0.921875q1.21875 0 2.03125 -0.921875q0.8125 -0.9375 0.8125 -2.84375q0 -1.796875 -0.8125 -2.71875q-0.8125 -0.921875 -2.03125 -0.921875q-1.234375 0 -2.046875 0.921875q-0.796875 0.90625 -0.796875 2.765625zm9.297607 -4.828125l1.640625 0l0 4.03125l4.546875 0l0 -4.03125l1.640625 0l0 9.671875l-1.640625 0l0 -4.296875l-4.546875 0l0 4.296875l-1.640625 0l0 -9.671875zm9.412201 0l7.859375 0l0 1.359375l-3.109375 0l0 8.3125l-1.625 0l0 -8.3125l-3.125 0l0 -1.359375zm16.060333 6.5625l1.6875 0.203125q-0.40625 1.484375 -1.484375 2.3125q-1.078125 0.8125 -2.765625 0.8125q-2.125 0 -3.375 -1.296875q-1.234375 -1.3125 -1.234375 -3.671875q0 -2.453125 1.25 -3.796875q1.265625 -1.34375 3.265625 -1.34375q1.9375 0 3.15625 1.328125q1.234375 1.3125 1.234375 3.703125q0 0.15625 0 0.4375l-7.21875 0q0.09375 1.59375 0.90625 2.453125q0.8125 0.84375 2.015625 0.84375q0.90625 0 1.546875 -0.46875q0.640625 -0.484375 1.015625 -1.515625zm-5.390625 -2.65625l5.40625 0q-0.109375 -1.21875 -0.625 -1.828125q-0.78125 -0.953125 -2.03125 -0.953125q-1.125 0 -1.90625 0.765625q-0.765625 0.75 -0.84375 2.015625zm9.141357 -3.90625l1.640625 0l0 7.375l4.546875 -7.375l1.765625 0l0 9.671875l-1.640625 0l0 -7.328125l-4.546875 7.328125l-1.765625 0l0 -9.671875zm5.453125 -3.671875l1.109375 0q-0.125 1.140625 -0.828125 1.75q-0.703125 0.609375 -1.859375 0.609375q-1.15625 0 -1.859375 -0.59375q-0.6875 -0.609375 -0.828125 -1.765625l1.125 0q0.125 0.625 0.5 0.9375q0.375 0.296875 1.015625 0.296875q0.734375 0 1.109375 -0.296875q0.390625 -0.296875 0.515625 -0.9375zm4.9681396 3.671875l1.640625 0l0 4.03125l4.546875 0l0 -4.03125l1.640625 0l0 9.671875l-1.640625 0l0 -4.296875l-4.546875 0l0 4.296875l-1.640625 0l0 -9.671875zm16.927826 6.5625l1.6875 0.203125q-0.40625 1.484375 -1.484375 2.3125q-1.078125 0.8125 -2.765625 0.8125q-2.125 0 -3.375 -1.296875q-1.234375 -1.3125 -1.234375 -3.671875q0 -2.453125 1.25 -3.796875q1.265625 -1.34375 3.265625 -1.34375q1.9375 0 3.15625 1.328125q1.234375 1.3125 1.234375 3.703125q0 0.15625 0 0.4375l-7.21875 0q0.09375 1.59375 0.90625 2.453125q0.8125 0.84375 2.015625 0.84375q0.90625 0 1.546875 -0.46875q0.640625 -0.484375 1.015625 -1.515625zm-5.390625 -2.65625l5.40625 0q-0.109375 -1.21875 -0.625 -1.828125q-0.78125 -0.953125 -2.03125 -0.953125q-1.125 0 -1.90625 0.765625q-0.765625 0.75 -0.84375 2.015625zm9.141357 9.46875l0 -13.375l1.484375 0l0 1.25q0.53125 -0.734375 1.1875 -1.09375q0.671875 -0.375 1.625 -0.375q1.234375 0 2.171875 0.640625q0.953125 0.625 1.4375 1.796875q0.484375 1.15625 0.484375 2.546875q0 1.484375 -0.53125 2.671875q-0.53125 1.1875 -1.546875 1.828125q-1.015625 0.625 -2.140625 0.625q-0.8125 0 -1.46875 -0.34375q-0.65625 -0.34375 -1.0625 -0.875l0 4.703125l-1.640625 0zm1.484375 -8.484375q0 1.859375 0.75 2.765625q0.765625 0.890625 1.828125 0.890625q1.09375 0 1.875 -0.921875q0.78125 -0.9375 0.78125 -2.875q0 -1.84375 -0.765625 -2.765625q-0.75 -0.921875 -1.8125 -0.921875q-1.046875 0 -1.859375 0.984375q-0.796875 0.96875 -0.796875 2.84375z" fill-rule="nonzero"/><path fill="#000000" d="m175.07208 194.90652l1.3125 -0.34375q0.15625 0.765625 0.8125 1.53125q0.65625 0.765625 1.734375 0.765625q1.109375 0 1.734375 -0.5625q0.640625 -0.5625 0.640625 -1.359375q0 -0.875 -0.671875 -1.375q-0.671875 -0.515625 -1.828125 -0.515625l-0.671875 0l0 -1.21875q0.96875 0 1.46875 -0.109375q0.515625 -0.109375 0.90625 -0.5625q0.390625 -0.453125 0.390625 -1.03125q0 -0.6875 -0.546875 -1.1875q-0.53125 -0.515625 -1.4375 -0.515625q-0.796875 0 -1.359375 0.40625q-0.5625 0.390625 -0.78125 1.046875q-0.203125 0.65625 -0.203125 0.96875l-1.328125 -0.296875q0.484375 -3.34375 3.6875 -3.34375q1.546875 0 2.4375 0.859375q0.90625 0.859375 0.90625 2.0q0 1.46875 -1.390625 2.28125q0.796875 0.21875 1.34375 0.90625q0.546875 0.671875 0.546875 1.625q0 1.359375 -1.0625 2.265625q-1.046875 0.90625 -2.765625 0.90625q-2.984375 0 -3.875 -3.140625zm14.211807 2.03125q-0.71875 0.609375 -1.375 0.859375q-0.65625 0.25 -1.421875 0.25q-1.25 0 -1.921875 -0.609375q-0.671875 -0.609375 -0.671875 -1.5625q0 -0.5625 0.25 -1.015625q0.25 -0.46875 0.65625 -0.75q0.421875 -0.28125 0.9375 -0.421875q0.375 -0.09375 1.140625 -0.1875q1.5625 -0.1875 2.296875 -0.453125q0.015625 -0.265625 0.015625 -0.328125q0 -0.796875 -0.375 -1.109375q-0.484375 -0.4375 -1.453125 -0.4375q-0.921875 0 -1.359375 0.328125q-0.421875 0.3125 -0.625 1.109375l-1.265625 -0.171875q0.171875 -0.796875 0.5625 -1.296875q0.390625 -0.5 1.140625 -0.765625q0.75 -0.265625 1.71875 -0.265625q0.984375 0 1.59375 0.234375q0.609375 0.21875 0.890625 0.5625q0.28125 0.34375 0.40625 0.875q0.0625 0.328125 0.0625 1.1875l0 1.71875q0 1.796875 0.078125 2.28125q0.078125 0.46875 0.328125 0.90625l-1.34375 0q-0.203125 -0.40625 -0.265625 -0.9375zm-0.109375 -2.875q-0.703125 0.28125 -2.09375 0.484375q-0.796875 0.109375 -1.125 0.265625q-0.328125 0.140625 -0.515625 0.421875q-0.171875 0.265625 -0.171875 0.59375q0 0.515625 0.390625 0.859375q0.390625 0.34375 1.140625 0.34375q0.734375 0 1.3125 -0.3125q0.59375 -0.328125 0.859375 -0.890625q0.203125 -0.4375 0.203125 -1.296875l0 -0.46875zm3.3073578 -3.78125l6.0 0l0 7.59375l-1.28125 0l0 -6.53125l-3.421875 0l0 6.53125l-1.296875 0l0 -7.59375zm7.9364166 10.5l0 -10.5l1.171875 0l0 0.984375q0.421875 -0.578125 0.9375 -0.859375q0.515625 -0.296875 1.265625 -0.296875q0.96875 0 1.71875 0.5q0.75 0.5 1.125 1.421875q0.375 0.90625 0.375 1.984375q0 1.171875 -0.421875 2.109375q-0.40625 0.921875 -1.21875 1.421875q-0.796875 0.5 -1.671875 0.5q-0.640625 0 -1.15625 -0.265625q-0.515625 -0.28125 -0.84375 -0.6875l0 3.6875l-1.28125 0zm1.15625 -6.65625q0 1.453125 0.59375 2.15625q0.609375 0.703125 1.453125 0.703125q0.859375 0 1.46875 -0.71875q0.609375 -0.734375 0.609375 -2.25q0 -1.453125 -0.609375 -2.171875q-0.59375 -0.734375 -1.421875 -0.734375q-0.8125 0 -1.453125 0.78125q-0.640625 0.765625 -0.640625 2.234375zm6.510483 -0.046875q0 -2.109375 1.171875 -3.125q0.984375 -0.84375 2.390625 -0.84375q1.578125 0 2.5625 1.03125q1.0 1.015625 1.0 2.828125q0 1.46875 -0.4375 2.3125q-0.4375 0.828125 -1.28125 1.296875q-0.84375 0.46875 -1.84375 0.46875q-1.59375 0 -2.578125 -1.015625q-0.984375 -1.03125 -0.984375 -2.953125zm1.328125 0q0 1.453125 0.625 2.1875q0.640625 0.71875 1.609375 0.71875q0.96875 0 1.59375 -0.71875q0.640625 -0.734375 0.640625 -2.234375q0 -1.40625 -0.640625 -2.125q-0.640625 -0.734375 -1.59375 -0.734375q-0.96875 0 -1.609375 0.71875q-0.625 0.71875 -0.625 2.1875zm12.260483 1.015625l1.265625 0.15625q-0.203125 1.3125 -1.0625 2.0625q-0.84375 0.734375 -2.09375 0.734375q-1.5625 0 -2.515625 -1.015625q-0.9375 -1.03125 -0.9375 -2.921875q0 -1.234375 0.40625 -2.15625q0.40625 -0.921875 1.234375 -1.375q0.84375 -0.46875 1.8125 -0.46875q1.25 0 2.03125 0.625q0.78125 0.625 1.015625 1.765625l-1.265625 0.203125q-0.171875 -0.765625 -0.625 -1.15625q-0.453125 -0.390625 -1.09375 -0.390625q-0.984375 0 -1.59375 0.703125q-0.609375 0.703125 -0.609375 2.203125q0 1.53125 0.578125 2.234375q0.59375 0.6875 1.546875 0.6875q0.75 0 1.265625 -0.453125q0.515625 -0.46875 0.640625 -1.4375zm11.400101 1.84375q-0.71875 0.609375 -1.375 0.859375q-0.65625 0.25 -1.421875 0.25q-1.25 0 -1.921875 -0.609375q-0.671875 -0.609375 -0.671875 -1.5625q0 -0.5625 0.25 -1.015625q0.25 -0.46875 0.65625 -0.75q0.421875 -0.28125 0.9375 -0.421875q0.375 -0.09375 1.140625 -0.1875q1.5625 -0.1875 2.296875 -0.453125q0.015625 -0.265625 0.015625 -0.328125q0 -0.796875 -0.375 -1.109375q-0.484375 -0.4375 -1.453125 -0.4375q-0.921875 0 -1.359375 0.328125q-0.421875 0.3125 -0.625 1.109375l-1.265625 -0.171875q0.171875 -0.796875 0.5625 -1.296875q0.390625 -0.5 1.140625 -0.765625q0.75 -0.265625 1.71875 -0.265625q0.984375 0 1.59375 0.234375q0.609375 0.21875 0.890625 0.5625q0.28125 0.34375 0.40625 0.875q0.0625 0.328125 0.0625 1.1875l0 1.71875q0 1.796875 0.078125 2.28125q0.078125 0.46875 0.328125 0.90625l-1.34375 0q-0.203125 -0.40625 -0.265625 -0.9375zm-0.109375 -2.875q-0.703125 0.28125 -2.09375 0.484375q-0.796875 0.109375 -1.125 0.265625q-0.328125 0.140625 -0.515625 0.421875q-0.171875 0.265625 -0.171875 0.59375q0 0.515625 0.390625 0.859375q0.390625 0.34375 1.140625 0.34375q0.734375 0 1.3125 -0.3125q0.59375 -0.328125 0.859375 -0.890625q0.203125 -0.4375 0.203125 -1.296875l0 -0.46875zm4.322983 -3.78125l5.296875 0l0 6.53125l0.8125 0l0 3.21875l-1.046875 0l0 -2.15625l-5.984375 0l0 2.15625l-1.0625 0l0 -3.21875l0.6875 0q1.359375 -1.84375 1.296875 -6.53125zm1.078125 1.0625q-0.15625 3.703125 -1.15625 5.46875l4.09375 0l0 -5.46875l-2.9375 0zm6.4581146 9.4375l0 -10.5l1.171875 0l0 0.984375q0.421875 -0.578125 0.9375 -0.859375q0.515625 -0.296875 1.265625 -0.296875q0.96875 0 1.71875 0.5q0.75 0.5 1.125 1.421875q0.375 0.90625 0.375 1.984375q0 1.171875 -0.421875 2.109375q-0.40625 0.921875 -1.21875 1.421875q-0.796875 0.5 -1.671875 0.5q-0.640625 0 -1.15625 -0.265625q-0.515625 -0.28125 -0.84375 -0.6875l0 3.6875l-1.28125 0zm1.15625 -6.65625q0 1.453125 0.59375 2.15625q0.609375 0.703125 1.453125 0.703125q0.859375 0 1.46875 -0.71875q0.609375 -0.734375 0.609375 -2.25q0 -1.453125 -0.609375 -2.171875q-0.59375 -0.734375 -1.421875 -0.734375q-0.8125 0 -1.453125 0.78125q-0.640625 0.765625 -0.640625 2.234375zm12.197968 1.296875l1.328125 0.171875q-0.3125 1.171875 -1.171875 1.8125q-0.84375 0.640625 -2.171875 0.640625q-1.6718597 0 -2.6562347 -1.015625q-0.96875 -1.03125 -0.96875 -2.890625q0 -1.921875 0.984375 -2.96875q1.0 -1.0625 2.5781097 -1.0625q1.515625 0 2.484375 1.03125q0.96875 1.03125 0.96875 2.921875q0 0.109375 -0.015625 0.34375l-5.6562347 0q0.0625 1.25 0.703125 1.921875q0.640625 0.65625 1.5937347 0.65625q0.703125 0 1.203125 -0.359375q0.5 -0.375 0.796875 -1.203125zm-4.2343597 -2.078125l4.2499847 0q-0.09375 -0.953125 -0.484375 -1.4375q-0.625 -0.75 -1.609375 -0.75q-0.87498474 0 -1.4843597 0.59375q-0.609375 0.59375 -0.671875 1.59375zm12.135483 1.75l1.265625 0.15625q-0.203125 1.3125 -1.0625 2.0625q-0.84375 0.734375 -2.09375 0.734375q-1.5625 0 -2.515625 -1.015625q-0.9375 -1.03125 -0.9375 -2.921875q0 -1.234375 0.40625 -2.15625q0.40625 -0.921875 1.234375 -1.375q0.84375 -0.46875 1.8125 -0.46875q1.25 0 2.03125 0.625q0.78125 0.625 1.015625 1.765625l-1.265625 0.203125q-0.171875 -0.765625 -0.625 -1.15625q-0.453125 -0.390625 -1.09375 -0.390625q-0.984375 0 -1.59375 0.703125q-0.609375 0.703125 -0.609375 2.203125q0 1.53125 0.578125 2.234375q0.59375 0.6875 1.546875 0.6875q0.75 0 1.265625 -0.453125q0.515625 -0.46875 0.640625 -1.4375zm1.890625 -1.015625q0 -2.109375 1.171875 -3.125q0.984375 -0.84375 2.390625 -0.84375q1.578125 0 2.5625 1.03125q1.0 1.015625 1.0 2.828125q0 1.46875 -0.4375 2.3125q-0.4375 0.828125 -1.28125 1.296875q-0.84375 0.46875 -1.84375 0.46875q-1.59375 0 -2.578125 -1.015625q-0.984375 -1.03125 -0.984375 -2.953125zm1.328125 0q0 1.453125 0.625 2.1875q0.640625 0.71875 1.609375 0.71875q0.96875 0 1.59375 -0.71875q0.640625 -0.734375 0.640625 -2.234375q0 -1.40625 -0.640625 -2.125q-0.640625 -0.734375 -1.59375 -0.734375q-0.96875 0 -1.609375 0.71875q-0.625 0.71875 -0.625 2.1875zm7.3073425 -3.796875l2.96875 0q1.09375 0 1.625 0.1875q0.546875 0.171875 0.921875 0.65625q0.390625 0.484375 0.390625 1.171875q0 0.546875 -0.234375 0.953125q-0.21875 0.390625 -0.671875 0.671875q0.53125 0.171875 0.890625 0.671875q0.359375 0.484375 0.359375 1.15625q-0.078125 1.078125 -0.78125 1.609375q-0.703125 0.515625 -2.03125 0.515625l-3.4375 0l0 -7.59375zm1.296875 3.1875l1.375 0q0.8125 0 1.125 -0.078125q0.3125 -0.09375 0.546875 -0.34375q0.25 -0.265625 0.25 -0.625q0 -0.609375 -0.4375 -0.84375q-0.421875 -0.234375 -1.453125 -0.234375l-1.40625 0l0 2.125zm0 3.34375l1.6875 0q1.09375 0 1.5 -0.25q0.421875 -0.25 0.4375 -0.875q0 -0.375 -0.234375 -0.671875q-0.234375 -0.3125 -0.625 -0.390625q-0.375 -0.09375 -1.203125 -0.09375l-1.5625 0l0 2.28125zm10.561249 -6.53125l6.0 0l0 7.59375l-1.28125 0l0 -6.53125l-3.421875 0l0 6.53125l-1.296875 0l0 -7.59375zm7.4520264 3.796875q0 -2.109375 1.171875 -3.125q0.984375 -0.84375 2.390625 -0.84375q1.578125 0 2.5625 1.03125q1.0 1.015625 1.0 2.828125q0 1.46875 -0.4375 2.3125q-0.4375 0.828125 -1.28125 1.296875q-0.84375 0.46875 -1.84375 0.46875q-1.59375 0 -2.578125 -1.015625q-0.984375 -1.03125 -0.984375 -2.953125zm1.328125 0q0 1.453125 0.625 2.1875q0.640625 0.71875 1.609375 0.71875q0.96875 0 1.59375 -0.71875q0.640625 -0.734375 0.640625 -2.234375q0 -1.40625 -0.640625 -2.125q-0.640625 -0.734375 -1.59375 -0.734375q-0.96875 0 -1.609375 0.71875q-0.625 0.71875 -0.625 2.1875zm11.5355835 3.796875l0 -10.484375l3.625 0q1.21875 0 1.859375 0.140625q0.90625 0.203125 1.546875 0.75q0.828125 0.703125 1.234375 1.796875q0.40625 1.09375 0.40625 2.5q0 1.1875 -0.28125 2.109375q-0.265625 0.921875 -0.703125 1.53125q-0.4375 0.609375 -0.96875 0.953125q-0.515625 0.34375 -1.25 0.53125q-0.71875 0.171875 -1.671875 0.171875l-3.796875 0zm1.390625 -1.234375l2.25 0q1.03125 0 1.625 -0.1875q0.59375 -0.203125 0.9375 -0.546875q0.5 -0.5 0.765625 -1.328125q0.28125 -0.84375 0.28125 -2.03125q0 -1.640625 -0.546875 -2.515625q-0.53125 -0.890625 -1.3125 -1.1875q-0.546875 -0.21875 -1.796875 -0.21875l-2.203125 0l0 8.015625zm9.17804 1.234375l0 -10.484375l1.4375 0l5.5 8.234375l0 -8.234375l1.328125 0l0 10.484375l-1.421875 0l-5.5 -8.25l0 8.25l-1.34375 0zm10.131134 -3.375l1.3125 -0.109375q0.09375 0.78125 0.421875 1.296875q0.34375 0.5 1.0625 0.8125q0.71875 0.3125 1.609375 0.3125q0.796875 0 1.40625 -0.234375q0.609375 -0.234375 0.90625 -0.640625q0.296875 -0.421875 0.296875 -0.90625q0 -0.5 -0.296875 -0.859375q-0.28125 -0.375 -0.9375 -0.625q-0.421875 -0.171875 -1.875 -0.515625q-1.4375 -0.34375 -2.015625 -0.65625q-0.75 -0.390625 -1.125 -0.96875q-0.359375 -0.59375 -0.359375 -1.3125q0 -0.796875 0.4375 -1.484375q0.453125 -0.6875 1.3125 -1.046875q0.875 -0.359375 1.9375 -0.359375q1.171875 0 2.0625 0.375q0.890625 0.375 1.359375 1.109375q0.484375 0.734375 0.515625 1.65625l-1.328125 0.09375q-0.109375 -1.0 -0.734375 -1.5q-0.609375 -0.515625 -1.8125 -0.515625q-1.265625 0 -1.84375 0.46875q-0.578125 0.46875 -0.578125 1.109375q0 0.5625 0.421875 0.9375q0.390625 0.359375 2.078125 0.75q1.703125 0.375 2.328125 0.65625q0.921875 0.421875 1.359375 1.078125q0.4375 0.640625 0.4375 1.484375q0 0.84375 -0.484375 1.59375q-0.484375 0.734375 -1.390625 1.140625q-0.890625 0.40625 -2.015625 0.40625q-1.421875 0 -2.390625 -0.40625q-0.953125 -0.421875 -1.5 -1.25q-0.546875 -0.828125 -0.578125 -1.890625z" fill-rule="nonzero"/><path fill="#cfe2f3" d="m163.57735 262.81042l0 0c-1.3459778 -6.362152 3.0731506 -12.660278 11.382202 -16.221878c8.3090515 -3.5615997 19.050781 -3.7620392 27.667099 -0.5162506l0 0c3.0521545 -3.6992188 8.638504 -6.2532654 15.069275 -6.8896027c6.430771 -0.6363373 12.950638 0.71977234 17.587479 3.658142l0 0c2.6000519 -3.3539429 7.7052917 -5.607376 13.50412 -5.9606323c5.798828 -0.35327148 11.470566 1.2436066 15.002579 4.223984l0 0c4.6973877 -3.5551758 12.1710205 -5.0520477 19.187012 -3.842926c7.0160217 1.209137 12.31427 4.9071045 13.602173 9.493759l0 0c5.7550964 1.0096893 10.54895 3.5764465 13.143005 7.037094c2.5940552 3.4606628 2.7338257 7.4757385 0.38323975 11.007843l0 0c5.6670837 4.744049 6.992737 11.065399 3.4822998 16.605072c-3.510437 5.539673 -11.32959 9.465393 -20.53949 10.312134c-0.06491089 5.199188 -4.4980774 9.969879 -11.590759 12.473297c-7.092682 2.5033875 -15.737305 2.3485413 -22.601898 -0.4048462c-2.9239655 6.2269287 -11.1539 10.808624 -21.134201 11.7656555c-9.980286 0.95703125 -19.921783 -1.8821716 -25.529358 -7.290985c-6.8737335 2.6660156 -15.121628 3.434021 -22.883148 2.1307373c-7.761505 -1.3032837 -14.382843 -4.5680237 -18.370361 -9.057831l0 0c-7.0240784 0.5286865 -13.815399 -1.8120117 -17.003448 -5.860443c-3.1880493 -4.0484314 -2.094162 -8.942749 2.7387695 -12.253937l0 0c-6.265671 -2.3719788 -9.462799 -7.0787964 -7.9241943 -11.665985c1.5385895 -4.5871887 7.464264 -8.01532 14.686996 -8.496735z" fill-rule="evenodd"/><path fill="#000000" fill-opacity="0.0" d="m156.6757 283.21835l0 0c2.956787 1.1193237 6.3725586 1.6271057 9.788712 1.4551086m4.4744263 16.659698c1.4690704 -0.110565186 2.9090424 -0.34472656 4.282776 -0.69641113m36.968674 7.6231995c-1.0332489 -0.99664307 -1.8983307 -2.061615 -2.5805206 -3.1767883m49.24588 -1.2980652l0 0c0.53308105 -1.1352539 0.8784485 -2.3036804 1.0303955 -3.4857788m33.16095 -8.582245c0.069122314 -5.5353394 -4.818878 -10.603546 -12.564453 -13.027679m29.62149 -13.888916c-1.254364 1.8848572 -3.1693115 3.5569153 -5.5946655 4.8850403m-7.9303894 -22.930481l0 0c0.2137146 0.7611542 0.3126526 1.5337524 0.29537964 2.3070831m-33.084015 -7.9577026l0 0c-1.1717529 0.8868408 -2.1371155 1.8778687 -2.8660583 2.9422455m-25.6409 -1.2059784l0 0c-0.6244507 0.8055115 -1.090744 1.6578674 -1.3881531 2.5374603m-31.269089 0.6940613l0 0c1.8232117 0.68681335 3.5099182 1.5134583 5.0230865 2.4617767m-44.071884 14.2764435l0 0c0.18551636 0.8768616 0.4786377 1.7429199 0.87661743 2.5900574" fill-rule="evenodd"/><path stroke="#000000" stroke-width="1.0" stroke-linejoin="round" stroke-linecap="butt" d="m163.57735 262.81042l0 0c-1.3459778 -6.362152 3.0731506 -12.660278 11.382202 -16.221878c8.3090515 -3.5615997 19.050781 -3.7620392 27.667099 -0.5162506l0 0c3.0521545 -3.6992188 8.638504 -6.2532654 15.069275 -6.8896027c6.430771 -0.6363373 12.950638 0.71977234 17.587479 3.658142l0 0c2.6000519 -3.3539429 7.7052917 -5.607376 13.50412 -5.9606323c5.798828 -0.35327148 11.470566 1.2436066 15.002579 4.223984l0 0c4.6973877 -3.5551758 12.1710205 -5.0520477 19.187012 -3.842926c7.0160217 1.209137 12.31427 4.9071045 13.602173 9.493759l0 0c5.7550964 1.0096893 10.54895 3.5764465 13.143005 7.037094c2.5940552 3.4606628 2.7338257 7.4757385 0.38323975 11.007843l0 0c5.6670837 4.744049 6.992737 11.065399 3.4822998 16.605072c-3.510437 5.539673 -11.32959 9.465393 -20.53949 10.312134c-0.06491089 5.199188 -4.4980774 9.969879 -11.590759 12.473297c-7.092682 2.5033875 -15.737305 2.3485413 -22.601898 -0.4048462c-2.9239655 6.2269287 -11.1539 10.808624 -21.134201 11.7656555c-9.980286 0.95703125 -19.921783 -1.8821716 -25.529358 -7.290985c-6.8737335 2.6660156 -15.121628 3.434021 -22.883148 2.1307373c-7.761505 -1.3032837 -14.382843 -4.5680237 -18.370361 -9.057831l0 0c-7.0240784 0.5286865 -13.815399 -1.8120117 -17.003448 -5.860443c-3.1880493 -4.0484314 -2.094162 -8.942749 2.7387695 -12.253937l0 0c-6.265671 -2.3719788 -9.462799 -7.0787964 -7.9241943 -11.665985c1.5385895 -4.5871887 7.464264 -8.01532 14.686996 -8.496735z" fill-rule="evenodd"/><path stroke="#000000" stroke-width="1.0" stroke-linejoin="round" stroke-linecap="butt" d="m156.6757 283.21835l0 0c2.956787 1.1193237 6.3725586 1.6271057 9.788712 1.4551086m4.4744263 16.659698c1.4690704 -0.110565186 2.9090424 -0.34472656 4.282776 -0.69641113m36.968674 7.6231995c-1.0332489 -0.99664307 -1.8983307 -2.061615 -2.5805206 -3.1767883m49.24588 -1.2980652l0 0c0.53308105 -1.1352539 0.8784485 -2.3036804 1.0303955 -3.4857788m33.16095 -8.582245c0.069122314 -5.5353394 -4.818878 -10.603546 -12.564453 -13.027679m29.62149 -13.888916c-1.254364 1.8848572 -3.1693115 3.5569153 -5.5946655 4.8850403m-7.9303894 -22.930481l0 0c0.2137146 0.7611542 0.3126526 1.5337524 0.29537964 2.3070831m-33.084015 -7.9577026l0 0c-1.1717529 0.8868408 -2.1371155 1.8778687 -2.8660583 2.9422455m-25.6409 -1.2059784l0 0c-0.6244507 0.8055115 -1.090744 1.6578674 -1.3881531 2.5374603m-31.269089 0.6940613l0 0c1.8232117 0.68681335 3.5099182 1.5134583 5.0230865 2.4617767m-44.071884 14.2764435l0 0c0.18551636 0.8768616 0.4786377 1.7429199 0.87661743 2.5900574" fill-rule="evenodd"/><path fill="#000000" d="m200.32512 268.02722l1.515625 0.375q-0.46875 1.875 -1.71875 2.859375q-1.234375 0.984375 -3.015625 0.984375q-1.859375 0 -3.015625 -0.75q-1.15625 -0.765625 -1.765625 -2.1875q-0.609375 -1.4375 -0.609375 -3.078125q0 -1.796875 0.6875 -3.125q0.6875 -1.328125 1.9375 -2.015625q1.265625 -0.703125 2.78125 -0.703125q1.71875 0 2.890625 0.875q1.171875 0.875 1.640625 2.46875l-1.5 0.34375q-0.390625 -1.25 -1.15625 -1.8125q-0.75 -0.578125 -1.90625 -0.578125q-1.3125 0 -2.203125 0.640625q-0.890625 0.625 -1.25 1.703125q-0.359375 1.0625 -0.359375 2.1875q0 1.46875 0.421875 2.5625q0.4375 1.078125 1.328125 1.625q0.90625 0.53125 1.953125 0.53125q1.265625 0 2.140625 -0.734375q0.890625 -0.734375 1.203125 -2.171875zm3.1796875 4.015625l0 -11.453125l1.40625 0l0 11.453125l-1.40625 0zm9.0234375 0l0 -1.21875q-0.96875 1.40625 -2.640625 1.40625q-0.734375 0 -1.375 -0.28125q-0.625 -0.28125 -0.9375 -0.703125q-0.3125 -0.4375 -0.4375 -1.046875q-0.078125 -0.421875 -0.078125 -1.3125l0 -5.140625l1.40625 0l0 4.59375q0 1.109375 0.078125 1.484375q0.140625 0.5625 0.5625 0.875q0.4375 0.3125 1.0625 0.3125q0.640625 0 1.1875 -0.3125q0.5625 -0.328125 0.78125 -0.890625q0.234375 -0.5625 0.234375 -1.625l0 -4.4375l1.40625 0l0 8.296875l-1.25 0zm2.8984375 -2.484375l1.390625 -0.21875q0.109375 0.84375 0.640625 1.296875q0.546875 0.4375 1.5 0.4375q0.96875 0 1.4375 -0.390625q0.46875 -0.40625 0.46875 -0.9375q0 -0.46875 -0.40625 -0.75q-0.296875 -0.1875 -1.4375 -0.46875q-1.546875 -0.390625 -2.15625 -0.671875q-0.59375 -0.296875 -0.90625 -0.796875q-0.296875 -0.5 -0.296875 -1.109375q0 -0.5625 0.25 -1.03125q0.25 -0.46875 0.6875 -0.78125q0.328125 -0.25 0.890625 -0.40625q0.578125 -0.171875 1.21875 -0.171875q0.984375 0 1.71875 0.28125q0.734375 0.28125 1.078125 0.765625q0.359375 0.46875 0.5 1.28125l-1.375 0.1875q-0.09375 -0.640625 -0.546875 -1.0q-0.453125 -0.359375 -1.265625 -0.359375q-0.96875 0 -1.390625 0.328125q-0.40625 0.3125 -0.40625 0.734375q0 0.28125 0.171875 0.5q0.171875 0.21875 0.53125 0.375q0.21875 0.078125 1.25 0.359375q1.484375 0.390625 2.078125 0.65625q0.59375 0.25 0.921875 0.734375q0.34375 0.484375 0.34375 1.203125q0 0.703125 -0.421875 1.328125q-0.40625 0.609375 -1.1875 0.953125q-0.765625 0.34375 -1.734375 0.34375q-1.625 0 -2.46875 -0.671875q-0.84375 -0.671875 -1.078125 -2.0zm11.625 1.21875l0.203125 1.25q-0.59375 0.125 -1.0625 0.125q-0.765625 0 -1.1875 -0.234375q-0.421875 -0.25 -0.59375 -0.640625q-0.171875 -0.40625 -0.171875 -1.671875l0 -4.765625l-1.03125 0l0 -1.09375l1.03125 0l0 -2.0625l1.40625 -0.84375l0 2.90625l1.40625 0l0 1.09375l-1.40625 0l0 4.84375q0 0.609375 0.0625 0.78125q0.078125 0.171875 0.25 0.28125q0.171875 0.09375 0.484375 0.09375q0.234375 0 0.609375 -0.0625zm7.0546875 -1.40625l1.453125 0.171875q-0.34375 1.28125 -1.28125 1.984375q-0.921875 0.703125 -2.359375 0.703125q-1.828125 0 -2.890625 -1.125q-1.0625 -1.125 -1.0625 -3.140625q0 -2.09375 1.078125 -3.25q1.078125 -1.15625 2.796875 -1.15625q1.65625 0 2.703125 1.140625q1.0625 1.125 1.0625 3.171875q0 0.125 0 0.375l-6.1875 0q0.078125 1.375 0.765625 2.109375q0.703125 0.71875 1.734375 0.71875q0.78125 0 1.328125 -0.40625q0.546875 -0.40625 0.859375 -1.296875zm-4.609375 -2.28125l4.625 0q-0.09375 -1.046875 -0.53125 -1.5625q-0.671875 -0.8125 -1.734375 -0.8125q-0.96875 0 -1.640625 0.65625q-0.65625 0.640625 -0.71875 1.71875zm7.8203125 4.953125l0 -8.296875l1.265625 0l0 1.25q0.484375 -0.875 0.890625 -1.15625q0.40625 -0.28125 0.90625 -0.28125q0.703125 0 1.4375 0.453125l-0.484375 1.296875q-0.515625 -0.296875 -1.03125 -0.296875q-0.453125 0 -0.828125 0.28125q-0.359375 0.265625 -0.515625 0.765625q-0.234375 0.75 -0.234375 1.640625l0 4.34375l-1.40625 0zm10.2265625 0l0 -11.453125l1.515625 0l0 11.453125l-1.515625 0zm4.1796875 0l0 -11.453125l4.3281403 0q1.140625 0 1.734375 0.109375q0.84375 0.140625 1.40625 0.53125q0.578125 0.390625 0.921875 1.109375q0.359375 0.703125 0.359375 1.5625q0 1.453125 -0.9375 2.46875q-0.921875 1.015625 -3.359375 1.015625l-2.9375153 0l0 4.65625l-1.515625 0zm1.515625 -6.015625l2.9687653 0q1.46875 0 2.078125 -0.546875q0.625 -0.546875 0.625 -1.53125q0 -0.71875 -0.375 -1.234375q-0.359375 -0.515625 -0.953125 -0.671875q-0.375 -0.109375 -1.40625 -0.109375l-2.9375153 0l0 4.09375z" fill-rule="nonzero"/><path fill="#000000" d="m184.1142 291.29535q-0.984375 -1.234375 -1.65625 -2.875q-0.65625 -1.640625 -0.65625 -3.390625q0 -1.546875 0.5 -2.96875q0.578125 -1.640625 1.8125 -3.28125l0.828125 0q-0.78125 1.359375 -1.03125 1.9375q-0.40625 0.890625 -0.625 1.875q-0.28125 1.21875 -0.28125 2.4375q0 3.140625 1.9375 6.265625l-0.828125 0zm2.2039948 -9.71875l2.6875 0q1.0 0 1.484375 0.171875q0.484375 0.15625 0.828125 0.609375q0.359375 0.4375 0.359375 1.046875q0 0.5 -0.203125 0.875q-0.203125 0.359375 -0.625 0.609375q0.5 0.15625 0.8125 0.609375q0.328125 0.4375 0.328125 1.046875q-0.0625 0.984375 -0.703125 1.46875q-0.640625 0.46875 -1.859375 0.46875l-3.109375 0l0 -6.90625zm1.171875 2.90625l1.25 0q0.734375 0 1.015625 -0.078125q0.28125 -0.078125 0.5 -0.3125q0.234375 -0.25 0.234375 -0.578125q0 -0.546875 -0.390625 -0.75q-0.390625 -0.21875 -1.328125 -0.21875l-1.28125 0l0 1.9375zm0 3.03125l1.53125 0q1.0 0 1.375 -0.21875q0.375 -0.234375 0.390625 -0.796875q0 -0.34375 -0.21875 -0.625q-0.21875 -0.28125 -0.5625 -0.359375q-0.34375 -0.078125 -1.109375 -0.078125l-1.40625 0l0 2.078125zm5.8930664 -5.9375l1.171875 0l0 5.265625l3.25 -5.265625l1.265625 0l0 6.90625l-1.171875 0l0 -5.234375l-3.25 5.234375l-1.265625 0l0 -6.90625zm7.4450073 9.5625l0 -9.5625l1.078125 0l0 0.890625q0.375 -0.53125 0.84375 -0.78125q0.484375 -0.265625 1.15625 -0.265625q0.875 0 1.546875 0.453125q0.6875 0.453125 1.03125 1.28125q0.34375 0.828125 0.34375 1.828125q0 1.046875 -0.375 1.90625q-0.375 0.84375 -1.109375 1.296875q-0.71875 0.453125 -1.53125 0.453125q-0.578125 0 -1.046875 -0.25q-0.46875 -0.25 -0.765625 -0.625l0 3.375l-1.171875 0zm1.0625 -6.078125q0 1.34375 0.53125 1.984375q0.546875 0.625 1.3125 0.625q0.78125 0 1.34375 -0.65625q0.5625 -0.65625 0.5625 -2.046875q0 -1.3125 -0.546875 -1.96875q-0.546875 -0.671875 -1.296875 -0.671875q-0.75 0 -1.328125 0.703125q-0.578125 0.703125 -0.578125 2.03125zm5.7249756 -3.484375l5.609375 0l0 0.96875l-2.21875 0l0 5.9375l-1.171875 0l0 -5.9375l-2.21875 0l0 -0.96875zm6.6825104 9.5625l-0.125 -1.09375q0.375 0.109375 0.65625 0.109375q0.390625 0 0.625 -0.140625q0.234375 -0.125 0.390625 -0.359375q0.109375 -0.171875 0.359375 -0.875q0.03125 -0.09375 0.109375 -0.28125l-2.625 -6.921875l1.265625 0l1.4375 4.0q0.28125 0.765625 0.5 1.59375q0.203125 -0.796875 0.46875 -1.578125l1.484375 -4.015625l1.171875 0l-2.625 7.015625q-0.421875 1.140625 -0.65625 1.578125q-0.3125 0.578125 -0.71875 0.84375q-0.40625 0.28125 -0.96875 0.28125q-0.328125 0 -0.75 -0.15625zm11.2265625 -3.515625q-0.65625 0.5625 -1.265625 0.796875q-0.59375 0.21875 -1.28125 0.21875q-1.140625 0 -1.75 -0.546875q-0.609375 -0.5625 -0.609375 -1.4375q0 -0.5 0.21875 -0.921875q0.234375 -0.421875 0.609375 -0.671875q0.375 -0.25 0.84375 -0.390625q0.34375 -0.078125 1.046875 -0.171875q1.421875 -0.171875 2.09375 -0.40625q0 -0.234375 0 -0.296875q0 -0.71875 -0.328125 -1.015625q-0.453125 -0.390625 -1.34375 -0.390625q-0.8125 0 -1.21875 0.296875q-0.390625 0.28125 -0.578125 1.015625l-1.140625 -0.15625q0.15625 -0.734375 0.515625 -1.1875q0.359375 -0.453125 1.03125 -0.6875q0.671875 -0.25 1.5625 -0.25q0.890625 0 1.4375 0.203125q0.5625 0.203125 0.8125 0.53125q0.265625 0.3125 0.375 0.796875q0.046875 0.296875 0.046875 1.078125l0 1.5625q0 1.625 0.078125 2.0625q0.078125 0.4375 0.296875 0.828125l-1.21875 0q-0.1875 -0.359375 -0.234375 -0.859375zm-0.09375 -2.609375q-0.640625 0.265625 -1.921875 0.4375q-0.71875 0.109375 -1.015625 0.25q-0.296875 0.125 -0.46875 0.375q-0.15625 0.25 -0.15625 0.546875q0 0.46875 0.34375 0.78125q0.359375 0.3125 1.046875 0.3125q0.671875 0 1.203125 -0.296875q0.53125 -0.296875 0.78125 -0.8125q0.1875 -0.390625 0.1875 -1.171875l0 -0.421875zm3.5687256 -3.4375l5.4375 0l0 6.90625l-1.15625 0l0 -5.9375l-3.109375 0l0 3.4375q0 1.203125 -0.078125 1.59375q-0.078125 0.375 -0.4375 0.671875q-0.34375 0.28125 -1.015625 0.28125q-0.40625 0 -0.9375 -0.046875l0 -0.984375l0.515625 0q0.359375 0 0.515625 -0.0625q0.15625 -0.078125 0.203125 -0.234375q0.0625 -0.171875 0.0625 -1.078125l0 -4.546875zm7.1831665 0l1.171875 0l0 2.703125l1.484375 0q1.453125 0 2.234375 0.5625q0.78125 0.5625 0.78125 1.546875q0 0.859375 -0.65625 1.484375q-0.65625 0.609375 -2.09375 0.609375l-2.921875 0l0 -6.90625zm1.171875 5.9375l1.234375 0q1.109375 0 1.578125 -0.265625q0.484375 -0.28125 0.484375 -0.859375q0 -0.4375 -0.359375 -0.78125q-0.34375 -0.359375 -1.546875 -0.359375l-1.390625 0l0 2.265625zm5.8032837 -5.9375l1.171875 0l0 2.875l3.234375 0l0 -2.875l1.171875 0l0 6.90625l-1.171875 0l0 -3.0625l-3.234375 0l0 3.0625l-1.171875 0l0 -6.90625zm13.922913 0l1.171875 0l0 6.90625l-1.171875 0l0 -6.90625zm-6.546875 0l1.171875 0l0 2.703125l1.484375 0q1.453125 0 2.234375 0.5625q0.78125 0.5625 0.78125 1.546875q0 0.859375 -0.65625 1.484375q-0.65625 0.609375 -2.09375 0.609375l-2.921875 0l0 -6.90625zm1.171875 5.9375l1.234375 0q1.109375 0 1.578125 -0.265625q0.484375 -0.28125 0.484375 -0.859375q0 -0.4375 -0.359375 -0.78125q-0.34375 -0.359375 -1.546875 -0.359375l-1.390625 0l0 2.265625zm8.376465 -5.9375l1.171875 0l0 5.265625l3.25 -5.265625l1.265625 0l0 6.90625l-1.171875 0l0 -5.234375l-3.25 5.234375l-1.265625 0l0 -6.90625zm4.46875 -2.625l0.796875 0q-0.09375 0.8125 -0.59375 1.25q-0.5 0.4375 -1.328125 0.4375q-0.828125 0 -1.328125 -0.421875q-0.5 -0.4375 -0.59375 -1.265625l0.796875 0q0.09375 0.453125 0.359375 0.671875q0.28125 0.203125 0.734375 0.203125q0.53125 0 0.796875 -0.203125q0.265625 -0.21875 0.359375 -0.671875zm3.7418823 12.34375l-0.828125 0q1.9375 -3.125 1.9375 -6.265625q0 -1.21875 -0.28125 -2.421875q-0.21875 -0.984375 -0.609375 -1.875q-0.265625 -0.59375 -1.046875 -1.953125l0.828125 0q1.234375 1.640625 1.8125 3.28125q0.5 1.421875 0.5 2.96875q0 1.75 -0.671875 3.390625q-0.671875 1.640625 -1.640625 2.875z" fill-rule="nonzero"/><path fill="#000000" fill-opacity="0.0" d="m256.5538 206.8819l-24.566925 34.204712" fill-rule="evenodd"/><path stroke="#000000" stroke-width="1.0" stroke-linejoin="round" stroke-linecap="butt" d="m256.5538 206.8819l-21.066788 29.33142" fill-rule="evenodd"/><path fill="#000000" stroke="#000000" stroke-width="1.0" stroke-linecap="butt" d="m234.14546 235.24977l-1.3057709 4.64946l3.9888916 -2.722351z" fill-rule="evenodd"/><path fill="#b6d7a8" d="m378.5958 238.82939l122.23624 0l0 74.3622l-122.23624 0z" fill-rule="evenodd"/><path stroke="#000000" stroke-width="1.0" stroke-linejoin="round" stroke-linecap="butt" d="m378.5958 238.82939l122.23624 0l0 74.3622l-122.23624 0z" fill-rule="evenodd"/><path fill="#000000" d="m394.80414 282.9305l0 -13.359375l1.640625 0l0 7.625l3.890625 -3.9375l2.109375 0l-3.6875 3.59375l4.0625 6.078125l-2.015625 0l-3.203125 -4.953125l-1.15625 1.125l0 3.828125l-1.640625 0zm15.65625 0l0 -1.421875q-1.125 1.640625 -3.0625 1.640625q-0.859375 0 -1.609375 -0.328125q-0.734375 -0.328125 -1.09375 -0.828125q-0.359375 -0.5 -0.5 -1.21875q-0.109375 -0.46875 -0.109375 -1.53125l0 -5.984375l1.640625 0l0 5.359375q0 1.28125 0.109375 1.734375q0.15625 0.640625 0.65625 1.015625q0.5 0.375 1.234375 0.375q0.734375 0 1.375 -0.375q0.65625 -0.390625 0.921875 -1.03125q0.265625 -0.65625 0.265625 -1.890625l0 -5.1875l1.640625 0l0 9.671875l-1.46875 0zm5.547577 0l-1.515625 0l0 -13.359375l1.640625 0l0 4.765625q1.046875 -1.296875 2.65625 -1.296875q0.890625 0 1.6875 0.359375q0.796875 0.359375 1.3125 1.015625q0.515625 0.640625 0.796875 1.5625q0.296875 0.921875 0.296875 1.96875q0 2.484375 -1.234375 3.84375q-1.21875 1.359375 -2.953125 1.359375q-1.703125 0 -2.6875 -1.4375l0 1.21875zm-0.015625 -4.90625q0 1.734375 0.484375 2.515625q0.765625 1.265625 2.09375 1.265625q1.078125 0 1.859375 -0.9375q0.78125 -0.9375 0.78125 -2.78125q0 -1.890625 -0.75 -2.796875q-0.75 -0.90625 -1.828125 -0.90625q-1.0625 0 -1.859375 0.9375q-0.78125 0.9375 -0.78125 2.703125zm15.516357 1.796875l1.6875 0.203125q-0.40625 1.484375 -1.484375 2.3125q-1.078125 0.8125 -2.765625 0.8125q-2.125 0 -3.375 -1.296875q-1.234375 -1.3125 -1.234375 -3.671875q0 -2.453125 1.25 -3.796875q1.265625 -1.34375 3.265625 -1.34375q1.9375 0 3.15625 1.328125q1.234375 1.3125 1.234375 3.703125q0 0.15625 0 0.4375l-7.21875 0q0.09375 1.59375 0.90625 2.453125q0.8125 0.84375 2.015625 0.84375q0.90625 0 1.546875 -0.46875q0.640625 -0.484375 1.015625 -1.515625zm-5.390625 -2.65625l5.40625 0q-0.109375 -1.21875 -0.625 -1.828125q-0.78125 -0.953125 -2.03125 -0.953125q-1.125 0 -1.90625 0.765625q-0.765625 0.75 -0.84375 2.015625zm8.500702 1.75l0 -1.640625l5.03125 0l0 1.640625l-5.03125 0zm6.853302 7.71875l0 -13.375l1.484375 0l0 1.25q0.53125 -0.734375 1.1875 -1.09375q0.671875 -0.375 1.625 -0.375q1.234375 0 2.171875 0.640625q0.953125 0.625 1.4375 1.796875q0.484375 1.15625 0.484375 2.546875q0 1.484375 -0.53125 2.671875q-0.53125 1.1875 -1.546875 1.828125q-1.015625 0.625 -2.140625 0.625q-0.8125 0 -1.46875 -0.34375q-0.65625 -0.34375 -1.0625 -0.875l0 4.703125l-1.640625 0zm1.484375 -8.484375q0 1.859375 0.75 2.765625q0.765625 0.890625 1.828125 0.890625q1.09375 0 1.875 -0.921875q0.78125 -0.9375 0.78125 -2.875q0 -1.84375 -0.765625 -2.765625q-0.75 -0.921875 -1.8125 -0.921875q-1.046875 0 -1.859375 0.984375q-0.796875 0.96875 -0.796875 2.84375zm8.875732 4.78125l0 -9.671875l1.46875 0l0 1.46875q0.5625 -1.03125 1.03125 -1.359375q0.484375 -0.328125 1.0625 -0.328125q0.828125 0 1.6875 0.53125l-0.5625 1.515625q-0.609375 -0.359375 -1.203125 -0.359375q-0.546875 0 -0.96875 0.328125q-0.421875 0.328125 -0.609375 0.890625q-0.28125 0.875 -0.28125 1.921875l0 5.0625l-1.625 0zm5.618927 -4.84375q0 -2.6875 1.484375 -3.96875q1.25 -1.078125 3.046875 -1.078125q2.0 0 3.265625 1.3125q1.265625 1.296875 1.265625 3.609375q0 1.859375 -0.5625 2.9375q-0.5625 1.0625 -1.640625 1.65625q-1.0625 0.59375 -2.328125 0.59375q-2.03125 0 -3.28125 -1.296875q-1.25 -1.3125 -1.25 -3.765625zm1.6875 0q0 1.859375 0.796875 2.796875q0.8125 0.921875 2.046875 0.921875q1.21875 0 2.03125 -0.921875q0.8125 -0.9375 0.8125 -2.84375q0 -1.796875 -0.8125 -2.71875q-0.8125 -0.921875 -2.03125 -0.921875q-1.234375 0 -2.046875 0.921875q-0.796875 0.90625 -0.796875 2.765625zm8.203827 4.84375l3.53125 -5.03125l-3.265625 -4.640625l2.046875 0l1.484375 2.265625q0.421875 0.640625 0.671875 1.078125q0.40625 -0.59375 0.734375 -1.0625l1.640625 -2.28125l1.953125 0l-3.34375 4.546875l3.59375 5.125l-2.015625 0l-1.984375 -3.0l-0.515625 -0.8125l-2.546875 3.8125l-1.984375 0zm10.34375 3.71875l-0.1875 -1.53125q0.546875 0.140625 0.9375 0.140625q0.546875 0 0.875 -0.1875q0.328125 -0.171875 0.546875 -0.5q0.15625 -0.25 0.5 -1.21875q0.046875 -0.140625 0.140625 -0.40625l-3.671875 -9.6875l1.765625 0l2.015625 5.59375q0.390625 1.078125 0.703125 2.25q0.28125 -1.125 0.671875 -2.203125l2.078125 -5.640625l1.640625 0l-3.6875 9.828125q-0.59375 1.609375 -0.921875 2.203125q-0.4375 0.8125 -1.0 1.1875q-0.5625 0.375 -1.34375 0.375q-0.484375 0 -1.0625 -0.203125z" fill-rule="nonzero"/><path fill="#000000" fill-opacity="0.0" d="m315.3054 276.0104l63.275604 0" fill-rule="evenodd"/><path stroke="#000000" stroke-width="1.0" stroke-linejoin="round" stroke-linecap="butt" d="m315.30542 276.0104l57.275574 0" fill-rule="evenodd"/><path fill="#000000" stroke="#000000" stroke-width="1.0" stroke-linecap="butt" d="m372.581 277.66214l4.538086 -1.6517334l-4.538086 -1.6517334z" fill-rule="evenodd"/><path fill="#ea9999" d="m306.23096 63.498688l251.9685 0l0 34.204727l-251.9685 0z" fill-rule="evenodd"/><path stroke="#000000" stroke-width="1.0" stroke-linejoin="round" stroke-linecap="butt" d="m306.23096 63.498688l251.9685 0l0 34.204727l-251.9685 0z" fill-rule="evenodd"/><path fill="#000000" d="m329.5174 74.161674l1.78125 0l4.359375 8.1875l3.796875 -8.1875l1.765625 0l-5.015625 10.390625q-0.9375 1.953125 -1.546875 2.5625q-0.59375 0.59375 -1.703125 0.59375q-0.6875 0 -1.6875 -0.328125l0 -1.515625q0.71875 0.421875 1.515625 0.421875q0.640625 0 1.109375 -0.40625q0.46875 -0.421875 1.03125 -1.90625l-5.40625 -9.8125zm12.992096 3.6875l7.640625 0l0 9.671875l-1.640625 0l0 -8.3125l-4.359375 0l0 8.3125l-1.640625 0l0 -9.671875zm10.102417 13.375l0 -13.375l1.484375 0l0 1.25q0.53125 -0.734375 1.1875 -1.09375q0.671875 -0.375 1.625 -0.375q1.234375 0 2.171875 0.640625q0.953125 0.625 1.4375 1.796875q0.484375 1.15625 0.484375 2.546875q0 1.484375 -0.53125 2.671875q-0.53125 1.1875 -1.546875 1.828125q-1.015625 0.625 -2.140625 0.625q-0.8125 0 -1.46875 -0.34375q-0.65625 -0.34375 -1.0625 -0.875l0 4.703125l-1.640625 0zm1.484375 -8.484375q0 1.859375 0.75 2.765625q0.765625 0.890625 1.828125 0.890625q1.09375 0 1.875 -0.921875q0.78125 -0.9375 0.78125 -2.875q0 -1.84375 -0.765625 -2.765625q-0.75 -0.921875 -1.8125 -0.921875q-1.046875 0 -1.859375 0.984375q-0.796875 0.96875 -0.796875 2.84375zm15.203857 3.59375q-0.921875 0.765625 -1.765625 1.09375q-0.828125 0.3125 -1.796875 0.3125q-1.59375 0 -2.453125 -0.78125q-0.859375 -0.78125 -0.859375 -1.984375q0 -0.71875 0.328125 -1.296875q0.328125 -0.59375 0.84375 -0.9375q0.53125 -0.359375 1.1875 -0.546875q0.46875 -0.125 1.453125 -0.25q1.984375 -0.234375 2.921875 -0.5625q0.015625 -0.34375 0.015625 -0.421875q0 -1.0 -0.46875 -1.421875q-0.625 -0.546875 -1.875 -0.546875q-1.15625 0 -1.703125 0.40625q-0.546875 0.40625 -0.8125 1.421875l-1.609375 -0.21875q0.21875 -1.015625 0.71875 -1.640625q0.5 -0.640625 1.453125 -0.984375q0.953125 -0.34375 2.1875 -0.34375q1.25 0 2.015625 0.296875q0.78125 0.28125 1.140625 0.734375q0.375 0.4375 0.515625 1.109375q0.078125 0.421875 0.078125 1.515625l0 2.1875q0 2.28125 0.109375 2.890625q0.109375 0.59375 0.40625 1.15625l-1.703125 0q-0.265625 -0.515625 -0.328125 -1.1875zm-0.140625 -3.671875q-0.890625 0.375 -2.671875 0.625q-1.015625 0.140625 -1.4375 0.328125q-0.421875 0.1875 -0.65625 0.53125q-0.21875 0.34375 -0.21875 0.78125q0 0.65625 0.5 1.09375q0.5 0.4375 1.453125 0.4375q0.9375 0 1.671875 -0.40625q0.75 -0.421875 1.09375 -1.140625q0.265625 -0.5625 0.265625 -1.640625l0 -0.609375zm4.203827 -4.8125l3.78125 0q1.390625 0 2.0625 0.234375q0.6875 0.234375 1.171875 0.859375q0.5 0.609375 0.5 1.46875q0 0.703125 -0.296875 1.21875q-0.28125 0.5 -0.859375 0.859375q0.6875 0.21875 1.140625 0.84375q0.453125 0.625 0.453125 1.484375q-0.09375 1.375 -0.984375 2.046875q-0.890625 0.65625 -2.59375 0.65625l-4.375 0l0 -9.671875zm1.640625 4.0625l1.75 0q1.046875 0 1.4375 -0.109375q0.390625 -0.109375 0.703125 -0.4375q0.3125 -0.328125 0.3125 -0.796875q0 -0.765625 -0.546875 -1.0625q-0.53125 -0.296875 -1.84375 -0.296875l-1.8125 0l0 2.703125zm0 4.265625l2.15625 0q1.40625 0 1.921875 -0.328125q0.515625 -0.328125 0.546875 -1.109375q0 -0.46875 -0.3125 -0.859375q-0.296875 -0.40625 -0.78125 -0.5q-0.46875 -0.109375 -1.546875 -0.109375l-1.984375 0l0 2.90625zm9.067383 -8.328125l7.609375 0l0 9.671875l-1.625 0l0 -8.3125l-4.34375 0l0 4.8125q0 1.6875 -0.109375 2.234375q-0.109375 0.53125 -0.609375 0.9375q-0.484375 0.390625 -1.40625 0.390625q-0.578125 0 -1.328125 -0.078125l0 -1.359375l0.71875 0q0.515625 0 0.734375 -0.09375q0.21875 -0.109375 0.28125 -0.34375q0.078125 -0.234375 0.078125 -1.484375l0 -6.375zm16.71399 6.5625l1.6875 0.203125q-0.40625 1.484375 -1.484375 2.3125q-1.078125 0.8125 -2.765625 0.8125q-2.125 0 -3.375 -1.296875q-1.234375 -1.3125 -1.234375 -3.671875q0 -2.453125 1.25 -3.796875q1.265625 -1.34375 3.265625 -1.34375q1.9375 0 3.15625 1.328125q1.234375 1.3125 1.234375 3.703125q0 0.15625 0 0.4375l-7.21875 0q0.09375 1.59375 0.90625 2.453125q0.8125 0.84375 2.015625 0.84375q0.90625 0 1.546875 -0.46875q0.640625 -0.484375 1.015625 -1.515625zm-5.390625 -2.65625l5.40625 0q-0.109375 -1.21875 -0.625 -1.828125q-0.78125 -0.953125 -2.03125 -0.953125q-1.125 0 -1.90625 0.765625q-0.765625 0.75 -0.84375 2.015625zm9.141327 -3.90625l1.640625 0l0 4.03125l4.546875 0l0 -4.03125l1.640625 0l0 9.671875l-1.640625 0l0 -4.296875l-4.546875 0l0 4.296875l-1.640625 0l0 -9.671875zm10.302856 0l1.640625 0l0 7.375l4.546875 -7.375l1.765625 0l0 9.671875l-1.640625 0l0 -7.328125l-4.546875 7.328125l-1.765625 0l0 -9.671875zm17.046265 6.5625l1.6875 0.203125q-0.40625 1.484375 -1.484375 2.3125q-1.078125 0.8125 -2.765625 0.8125q-2.125 0 -3.375 -1.296875q-1.234375 -1.3125 -1.234375 -3.671875q0 -2.453125 1.25 -3.796875q1.265625 -1.34375 3.265625 -1.34375q1.9375 0 3.15625 1.328125q1.234375 1.3125 1.234375 3.703125q0 0.15625 0 0.4375l-7.21875 0q0.09375 1.59375 0.90625 2.453125q0.8125 0.84375 2.015625 0.84375q0.90625 0 1.546875 -0.46875q0.640625 -0.484375 1.015625 -1.515625zm-5.390625 -2.65625l5.40625 0q-0.109375 -1.21875 -0.625 -1.828125q-0.78125 -0.953125 -2.03125 -0.953125q-1.125 0 -1.90625 0.765625q-0.765625 0.75 -0.84375 2.015625zm14.449646 5.765625l0 -13.359375l1.78125 0l0 6.625l6.625 -6.625l2.390625 0l-5.59375 5.421875l5.84375 7.9375l-2.328125 0l-4.765625 -6.765625l-2.171875 2.140625l0 4.625l-1.78125 0zm18.646698 0l0 -1.421875q-1.125 1.640625 -3.0625 1.640625q-0.859375 0 -1.609375 -0.328125q-0.734375 -0.328125 -1.09375 -0.828125q-0.359375 -0.5 -0.5 -1.21875q-0.109375 -0.46875 -0.109375 -1.53125l0 -5.984375l1.640625 0l0 5.359375q0 1.28125 0.109375 1.734375q0.15625 0.640625 0.65625 1.015625q0.5 0.375 1.234375 0.375q0.734375 0 1.375 -0.375q0.65625 -0.390625 0.921875 -1.03125q0.265625 -0.65625 0.265625 -1.890625l0 -5.1875l1.640625 0l0 9.671875l-1.46875 0zm5.547577 0l-1.515625 0l0 -13.359375l1.640625 0l0 4.765625q1.046875 -1.296875 2.65625 -1.296875q0.890625 0 1.6875 0.359375q0.796875 0.359375 1.3125 1.015625q0.515625 0.640625 0.796875 1.5625q0.296875 0.921875 0.296875 1.96875q0 2.484375 -1.234375 3.84375q-1.21875 1.359375 -2.953125 1.359375q-1.703125 0 -2.6875 -1.4375l0 1.21875zm-0.015625 -4.90625q0 1.734375 0.484375 2.515625q0.765625 1.265625 2.09375 1.265625q1.078125 0 1.859375 -0.9375q0.78125 -0.9375 0.78125 -2.78125q0 -1.890625 -0.75 -2.796875q-0.75 -0.90625 -1.828125 -0.90625q-1.0625 0 -1.859375 0.9375q-0.78125 0.9375 -0.78125 2.703125zm15.516357 1.796875l1.6875 0.203125q-0.40625 1.484375 -1.484375 2.3125q-1.078125 0.8125 -2.765625 0.8125q-2.125 0 -3.375 -1.296875q-1.234375 -1.3125 -1.234375 -3.671875q0 -2.453125 1.25 -3.796875q1.265625 -1.34375 3.265625 -1.34375q1.9375 0 3.15625 1.328125q1.234375 1.3125 1.234375 3.703125q0 0.15625 0 0.4375l-7.21875 0q0.09375 1.59375 0.90625 2.453125q0.8125 0.84375 2.015625 0.84375q0.90625 0 1.546875 -0.46875q0.640625 -0.484375 1.015625 -1.515625zm-5.390625 -2.65625l5.40625 0q-0.109375 -1.21875 -0.625 -1.828125q-0.78125 -0.953125 -2.03125 -0.953125q-1.125 0 -1.90625 0.765625q-0.765625 0.75 -0.84375 2.015625zm9.125702 5.765625l0 -9.671875l1.46875 0l0 1.46875q0.5625 -1.03125 1.03125 -1.359375q0.484375 -0.328125 1.0625 -0.328125q0.828125 0 1.6875 0.53125l-0.5625 1.515625q-0.609375 -0.359375 -1.203125 -0.359375q-0.546875 0 -0.96875 0.328125q-0.421875 0.328125 -0.609375 0.890625q-0.28125 0.875 -0.28125 1.921875l0 5.0625l-1.625 0zm6.228302 0l0 -9.671875l1.46875 0l0 1.375q1.0625 -1.59375 3.078125 -1.59375q0.875 0 1.609375 0.3125q0.734375 0.3125 1.09375 0.828125q0.375 0.5 0.515625 1.203125q0.09375 0.453125 0.09375 1.59375l0 5.953125l-1.640625 0l0 -5.890625q0 -1.0 -0.203125 -1.484375q-0.1875 -0.5 -0.671875 -0.796875q-0.484375 -0.296875 -1.140625 -0.296875q-1.046875 0 -1.8125 0.671875q-0.75 0.65625 -0.75 2.515625l0 5.28125l-1.640625 0zm17.000732 -3.109375l1.6875 0.203125q-0.40625 1.484375 -1.484375 2.3125q-1.078125 0.8125 -2.765625 0.8125q-2.125 0 -3.375 -1.296875q-1.234375 -1.3125 -1.234375 -3.671875q0 -2.453125 1.25 -3.796875q1.265625 -1.34375 3.265625 -1.34375q1.9375 0 3.15625 1.328125q1.234375 1.3125 1.234375 3.703125q0 0.15625 0 0.4375l-7.21875 0q0.09375 1.59375 0.90625 2.453125q0.8125 0.84375 2.015625 0.84375q0.90625 0 1.546875 -0.46875q0.640625 -0.484375 1.015625 -1.515625zm-5.390625 -2.65625l5.40625 0q-0.109375 -1.21875 -0.625 -1.828125q-0.78125 -0.953125 -2.03125 -0.953125q-1.125 0 -1.90625 0.765625q-0.765625 0.75 -0.84375 2.015625zm12.719452 4.296875l0.234375 1.453125q-0.6875 0.140625 -1.234375 0.140625q-0.890625 0 -1.390625 -0.28125q-0.484375 -0.28125 -0.6875 -0.734375q-0.203125 -0.46875 -0.203125 -1.9375l0 -5.578125l-1.203125 0l0 -1.265625l1.203125 0l0 -2.390625l1.625 -0.984375l0 3.375l1.65625 0l0 1.265625l-1.65625 0l0 5.671875q0 0.6875 0.078125 0.890625q0.09375 0.203125 0.28125 0.328125q0.203125 0.109375 0.578125 0.109375q0.265625 0 0.71875 -0.0625zm8.230164 -1.640625l1.6875 0.203125q-0.40625 1.484375 -1.484375 2.3125q-1.078125 0.8125 -2.765625 0.8125q-2.125 0 -3.375 -1.296875q-1.234375 -1.3125 -1.234375 -3.671875q0 -2.453125 1.25 -3.796875q1.265625 -1.34375 3.265625 -1.34375q1.9375 0 3.15625 1.328125q1.234375 1.3125 1.234375 3.703125q0 0.15625 0 0.4375l-7.21875 0q0.09375 1.59375 0.90625 2.453125q0.8125 0.84375 2.015625 0.84375q0.90625 0 1.546875 -0.46875q0.640625 -0.484375 1.015625 -1.515625zm-5.390625 -2.65625l5.40625 0q-0.109375 -1.21875 -0.625 -1.828125q-0.78125 -0.953125 -2.03125 -0.953125q-1.125 0 -1.90625 0.765625q-0.765625 0.75 -0.84375 2.015625zm8.485107 2.875l1.625 -0.25q0.125 0.96875 0.75 1.5q0.625 0.515625 1.75 0.515625q1.125 0 1.671875 -0.453125q0.546875 -0.46875 0.546875 -1.09375q0 -0.546875 -0.484375 -0.875q-0.328125 -0.21875 -1.671875 -0.546875q-1.8125 -0.46875 -2.515625 -0.796875q-0.6875 -0.328125 -1.046875 -0.90625q-0.359375 -0.59375 -0.359375 -1.3125q0 -0.640625 0.296875 -1.1875q0.296875 -0.5625 0.8125 -0.921875q0.375 -0.28125 1.03125 -0.46875q0.671875 -0.203125 1.421875 -0.203125q1.140625 0 2.0 0.328125q0.859375 0.328125 1.265625 0.890625q0.421875 0.5625 0.578125 1.5l-1.609375 0.21875q-0.109375 -0.75 -0.640625 -1.171875q-0.515625 -0.421875 -1.46875 -0.421875q-1.140625 0 -1.625 0.375q-0.46875 0.375 -0.46875 0.875q0 0.3125 0.1875 0.578125q0.203125 0.265625 0.640625 0.4375q0.234375 0.09375 1.4375 0.421875q1.75 0.453125 2.4375 0.75q0.6875 0.296875 1.078125 0.859375q0.390625 0.5625 0.390625 1.40625q0 0.828125 -0.484375 1.546875q-0.46875 0.71875 -1.375 1.125q-0.90625 0.390625 -2.046875 0.390625q-1.875 0 -2.875 -0.78125q-0.984375 -0.78125 -1.25 -2.328125z" fill-rule="nonzero"/><path fill="#000000" fill-opacity="0.0" d="m432.2152 97.703415l7.496063 141.13385" fill-rule="evenodd"/><path stroke="#000000" stroke-width="1.0" stroke-linejoin="round" stroke-linecap="butt" d="m432.2152 97.703415l7.177826 135.1423" fill-rule="evenodd"/><path fill="#000000" stroke="#000000" stroke-width="1.0" stroke-linecap="butt" d="m437.74365 232.93332l1.8901062 4.444107l1.4086914 -4.6193085z" fill-rule="evenodd"/><path fill="#d0e0e3" d="m122.902885 355.39108l201.76376 0l0 50.173218l-201.76376 0z" fill-rule="evenodd"/><path stroke="#000000" stroke-width="1.0" stroke-linejoin="round" stroke-linecap="butt" d="m122.902885 355.39108l201.76376 0l0 50.173218l-201.76376 0z" fill-rule="evenodd"/><path fill="#000000" d="m132.54352 372.63705q0 -2.375 1.28125 -3.71875q1.28125 -1.34375 3.296875 -1.34375q1.3125 0 2.375 0.625q1.0625 0.625 1.609375 1.765625q0.5625 1.125 0.5625 2.5625q0 1.4375 -0.59375 2.59375q-0.578125 1.140625 -1.65625 1.734375q-1.0625 0.578125 -2.3125 0.578125q-1.34375 0 -2.40625 -0.640625q-1.0625 -0.65625 -1.609375 -1.78125q-0.546875 -1.125 -0.546875 -2.375zm1.3125 0.015625q0 1.71875 0.921875 2.71875q0.921875 0.984375 2.328125 0.984375q1.421875 0 2.34375 -1.0q0.921875 -1.0 0.921875 -2.84375q0 -1.15625 -0.40625 -2.03125q-0.390625 -0.875 -1.15625 -1.34375q-0.75 -0.484375 -1.6875 -0.484375q-1.34375 0 -2.3125 0.921875q-0.953125 0.921875 -0.953125 3.078125zm8.663925 -2.28125l5.609375 0l0 0.96875l-2.21875 0l0 5.9375l-1.171875 0l0 -5.9375l-2.21875 0l0 -0.96875zm11.24501 4.375l1.15625 0.15625q-0.1875 1.1875 -0.96875 1.859375q-0.78125 0.671875 -1.921875 0.671875q-1.40625 0 -2.28125 -0.921875q-0.859375 -0.9375 -0.859375 -2.65625q0 -1.125 0.375 -1.96875q0.375 -0.84375 1.125 -1.25q0.765625 -0.421875 1.65625 -0.421875q1.125 0 1.84375 0.578125q0.71875 0.5625 0.921875 1.609375l-1.140625 0.171875q-0.171875 -0.703125 -0.59375 -1.046875q-0.40625 -0.359375 -0.984375 -0.359375q-0.890625 0 -1.453125 0.640625q-0.546875 0.640625 -0.546875 2.0q0 1.40625 0.53125 2.03125q0.546875 0.625 1.40625 0.625q0.6875 0 1.140625 -0.421875q0.46875 -0.421875 0.59375 -1.296875zm6.8828125 0.3125l1.203125 0.140625q-0.28125 1.0625 -1.0625 1.65625q-0.765625 0.578125 -1.96875 0.578125q-1.515625 0 -2.40625 -0.9375q-0.890625 -0.9375 -0.890625 -2.609375q0 -1.75 0.890625 -2.703125q0.90625 -0.96875 2.34375 -0.96875q1.390625 0 2.265625 0.9375q0.875 0.9375 0.875 2.65625q0 0.109375 0 0.3125l-5.15625 0q0.0625 1.140625 0.640625 1.75q0.578125 0.59375 1.4375 0.59375q0.65625 0 1.109375 -0.328125q0.453125 -0.34375 0.71875 -1.078125zm-3.84375 -1.90625l3.859375 0q-0.078125 -0.859375 -0.4375 -1.296875q-0.5625 -0.6875 -1.453125 -0.6875q-0.8125 0 -1.359375 0.546875q-0.546875 0.53125 -0.609375 1.4375zm6.5218506 -2.78125l1.171875 0l0 2.984375q0.5625 0 0.78125 -0.21875q0.21875 -0.21875 0.65625 -1.25q0.34375 -0.8125 0.5625 -1.078125q0.21875 -0.265625 0.5 -0.34375q0.28125 -0.09375 0.890625 -0.09375l0.234375 0l0 0.96875l-0.328125 -0.015625q-0.453125 0 -0.59375 0.140625q-0.125 0.140625 -0.40625 0.859375q-0.265625 0.671875 -0.5 0.9375q-0.21875 0.25 -0.671875 0.46875q0.75 0.203125 1.484375 1.40625l1.28125 2.140625l-1.296875 0l-1.25 -2.140625q-0.375 -0.640625 -0.671875 -0.84375q-0.28125 -0.21875 -0.671875 -0.21875l0 3.203125l-1.171875 0l0 -6.90625zm11.784042 9.71875q-0.984375 -1.234375 -1.65625 -2.875q-0.65625 -1.640625 -0.65625 -3.390625q0 -1.546875 0.5 -2.96875q0.578125 -1.640625 1.8125 -3.28125l0.828125 0q-0.78125 1.359375 -1.03125 1.9375q-0.40625 0.890625 -0.625 1.875q-0.28125 1.21875 -0.28125 2.4375q0 3.140625 1.9375 6.265625l-0.828125 0zm2.1883698 -9.71875l1.171875 0l0 2.984375q0.5625 0 0.78125 -0.21875q0.21875 -0.21875 0.65625 -1.25q0.34375 -0.8125 0.5625 -1.078125q0.21875 -0.265625 0.5 -0.34375q0.28125 -0.09375 0.890625 -0.09375l0.234375 0l0 0.96875l-0.328125 -0.015625q-0.453125 0 -0.59375 0.140625q-0.125 0.140625 -0.40625 0.859375q-0.265625 0.671875 -0.5 0.9375q-0.21875 0.25 -0.671875 0.46875q0.75 0.203125 1.484375 1.40625l1.28125 2.140625l-1.296875 0l-1.25 -2.140625q-0.375 -0.640625 -0.671875 -0.84375q-0.28125 -0.21875 -0.671875 -0.21875l0 3.203125l-1.171875 0l0 -6.90625zm5.3935547 3.453125q0 -1.921875 1.078125 -2.84375q0.890625 -0.765625 2.171875 -0.765625q1.421875 0 2.328125 0.9375q0.90625 0.921875 0.90625 2.578125q0 1.328125 -0.40625 2.09375q-0.390625 0.765625 -1.15625 1.1875q-0.765625 0.421875 -1.671875 0.421875q-1.453125 0 -2.359375 -0.921875q-0.890625 -0.9375 -0.890625 -2.6875zm1.203125 0q0 1.328125 0.578125 1.984375q0.59375 0.65625 1.46875 0.65625q0.875 0 1.453125 -0.65625q0.578125 -0.671875 0.578125 -2.03125q0 -1.28125 -0.59375 -1.9375q-0.578125 -0.65625 -1.4375 -0.65625q-0.875 0 -1.46875 0.65625q-0.578125 0.65625 -0.578125 1.984375zm6.6624756 -3.453125l1.171875 0l0 2.875l3.234375 0l0 -2.875l1.171875 0l0 6.90625l-1.171875 0l0 -3.0625l-3.234375 0l0 3.0625l-1.171875 0l0 -6.90625zm6.7197876 0l5.609375 0l0 0.96875l-2.21875 0l0 5.9375l-1.171875 0l0 -5.9375l-2.21875 0l0 -0.96875zm11.46376 4.6875l1.203125 0.140625q-0.28125 1.0625 -1.0625 1.65625q-0.765625 0.578125 -1.96875 0.578125q-1.515625 0 -2.40625 -0.9375q-0.890625 -0.9375 -0.890625 -2.609375q0 -1.75 0.890625 -2.703125q0.90625 -0.96875 2.34375 -0.96875q1.390625 0 2.265625 0.9375q0.875 0.9375 0.875 2.65625q0 0.109375 0 0.3125l-5.15625 0q0.0625 1.140625 0.640625 1.75q0.578125 0.59375 1.4375 0.59375q0.65625 0 1.109375 -0.328125q0.453125 -0.34375 0.71875 -1.078125zm-3.84375 -1.90625l3.859375 0q-0.078125 -0.859375 -0.4375 -1.296875q-0.5625 -0.6875 -1.453125 -0.6875q-0.8125 0 -1.359375 0.546875q-0.546875 0.53125 -0.609375 1.4375zm6.5218506 -2.78125l1.171875 0l0 5.265625l3.25 -5.265625l1.265625 0l0 6.90625l-1.171875 0l0 -5.234375l-3.25 5.234375l-1.265625 0l0 -6.90625zm4.46875 -2.625l0.796875 0q-0.09375 0.8125 -0.59375 1.25q-0.5 0.4375 -1.328125 0.4375q-0.828125 0 -1.328125 -0.421875q-0.5 -0.4375 -0.59375 -1.265625l0.796875 0q0.09375 0.453125 0.359375 0.671875q0.28125 0.203125 0.734375 0.203125q0.53125 0 0.796875 -0.203125q0.265625 -0.21875 0.359375 -0.671875zm2.9918823 2.625l1.171875 0l0 2.875l3.234375 0l0 -2.875l1.171875 0l0 6.90625l-1.171875 0l0 -3.0625l-3.234375 0l0 3.0625l-1.171875 0l0 -6.90625zm12.079163 4.6875l1.203125 0.140625q-0.28125 1.0625 -1.0625 1.65625q-0.765625 0.578125 -1.96875 0.578125q-1.515625 0 -2.40625 -0.9375q-0.890625 -0.9375 -0.890625 -2.609375q0 -1.75 0.890625 -2.703125q0.90625 -0.96875 2.34375 -0.96875q1.390625 0 2.265625 0.9375q0.875 0.9375 0.875 2.65625q0 0.109375 0 0.3125l-5.15625 0q0.0625 1.140625 0.640625 1.75q0.578125 0.59375 1.4375 0.59375q0.65625 0 1.109375 -0.328125q0.453125 -0.34375 0.71875 -1.078125zm-3.84375 -1.90625l3.859375 0q-0.078125 -0.859375 -0.4375 -1.296875q-0.5625 -0.6875 -1.453125 -0.6875q-0.8125 0 -1.359375 0.546875q-0.546875 0.53125 -0.609375 1.4375zm6.5218506 6.78125l0 -9.5625l1.078125 0l0 0.890625q0.375 -0.53125 0.84375 -0.78125q0.484375 -0.265625 1.15625 -0.265625q0.875 0 1.546875 0.453125q0.6875 0.453125 1.03125 1.28125q0.34375 0.828125 0.34375 1.828125q0 1.046875 -0.375 1.90625q-0.375 0.84375 -1.109375 1.296875q-0.71875 0.453125 -1.53125 0.453125q-0.578125 0 -1.046875 -0.25q-0.46875 -0.25 -0.765625 -0.625l0 3.375l-1.171875 0zm1.0625 -6.078125q0 1.34375 0.53125 1.984375q0.546875 0.625 1.3125 0.625q0.78125 0 1.34375 -0.65625q0.5625 -0.65625 0.5625 -2.046875q0 -1.3125 -0.546875 -1.96875q-0.546875 -0.671875 -1.296875 -0.671875q-0.75 0 -1.328125 0.703125q-0.578125 0.703125 -0.578125 2.03125zm7.1156006 6.234375l-0.828125 0q1.9375 -3.125 1.9375 -6.265625q0 -1.21875 -0.28125 -2.421875q-0.21875 -0.984375 -0.609375 -1.875q-0.265625 -0.59375 -1.046875 -1.953125l0.828125 0q1.234375 1.640625 1.8125 3.28125q0.5 1.421875 0.5 2.96875q0 1.75 -0.671875 3.390625q-0.671875 1.640625 -1.640625 2.875zm11.891357 -5.34375l1.15625 0.15625q-0.1875 1.1875 -0.96875 1.859375q-0.78125 0.671875 -1.921875 0.671875q-1.40625 0 -2.28125 -0.921875q-0.859375 -0.9375 -0.859375 -2.65625q0 -1.125 0.375 -1.96875q0.375 -0.84375 1.125 -1.25q0.765625 -0.421875 1.65625 -0.421875q1.125 0 1.84375 0.578125q0.71875 0.5625 0.921875 1.609375l-1.140625 0.171875q-0.171875 -0.703125 -0.59375 -1.046875q-0.40625 -0.359375 -0.984375 -0.359375q-0.890625 0 -1.453125 0.640625q-0.546875 0.640625 -0.546875 2.0q0 1.40625 0.53125 2.03125q0.546875 0.625 1.40625 0.625q0.6875 0 1.140625 -0.421875q0.46875 -0.421875 0.59375 -1.296875zm6.8827972 0.3125l1.203125 0.140625q-0.28125 1.0625 -1.0625 1.65625q-0.765625 0.578125 -1.96875 0.578125q-1.515625 0 -2.40625 -0.9375q-0.89060974 -0.9375 -0.89060974 -2.609375q0 -1.75 0.89060974 -2.703125q0.90625 -0.96875 2.34375 -0.96875q1.390625 0 2.265625 0.9375q0.875 0.9375 0.875 2.65625q0 0.109375 0 0.3125l-5.15625 0q0.0625 1.140625 0.640625 1.75q0.578125 0.59375 1.4375 0.59375q0.65625 0 1.109375 -0.328125q0.453125 -0.34375 0.71875 -1.078125zm-3.84375 -1.90625l3.859375 0q-0.078125 -0.859375 -0.4375 -1.296875q-0.5625 -0.6875 -1.453125 -0.6875q-0.8125 0 -1.359375 0.546875q-0.546875 0.53125 -0.609375 1.4375zm6.5218506 6.78125l0 -9.5625l1.078125 0l0 0.890625q0.375 -0.53125 0.84375 -0.78125q0.484375 -0.265625 1.15625 -0.265625q0.875 0 1.546875 0.453125q0.6875 0.453125 1.03125 1.28125q0.34375 0.828125 0.34375 1.828125q0 1.046875 -0.375 1.90625q-0.375 0.84375 -1.109375 1.296875q-0.71875 0.453125 -1.53125 0.453125q-0.578125 0 -1.046875 -0.25q-0.46875 -0.25 -0.765625 -0.625l0 3.375l-1.171875 0zm1.0625 -6.078125q0 1.34375 0.53125 1.984375q0.546875 0.625 1.3125 0.625q0.78125 0 1.34375 -0.65625q0.5625 -0.65625 0.5625 -2.046875q0 -1.3125 -0.546875 -1.96875q-0.546875 -0.671875 -1.296875 -0.671875q-0.75 0 -1.328125 0.703125q-0.578125 0.703125 -0.578125 2.03125zm6.3656006 -3.484375l2.6875 0q1.0 0 1.484375 0.171875q0.484375 0.15625 0.828125 0.609375q0.359375 0.4375 0.359375 1.046875q0 0.5 -0.203125 0.875q-0.203125 0.359375 -0.625 0.609375q0.5 0.15625 0.8125 0.609375q0.328125 0.4375 0.328125 1.046875q-0.0625 0.984375 -0.703125 1.46875q-0.640625 0.46875 -1.859375 0.46875l-3.109375 0l0 -6.90625zm1.171875 2.90625l1.25 0q0.734375 0 1.015625 -0.078125q0.28125 -0.078125 0.5 -0.3125q0.234375 -0.25 0.234375 -0.578125q0 -0.546875 -0.390625 -0.75q-0.390625 -0.21875 -1.328125 -0.21875l-1.28125 0l0 1.9375zm0 3.03125l1.53125 0q1.0 0 1.375 -0.21875q0.375 -0.234375 0.390625 -0.796875q0 -0.34375 -0.21875 -0.625q-0.21875 -0.28125 -0.5625 -0.359375q-0.34375 -0.078125 -1.109375 -0.078125l-1.40625 0l0 2.078125zm5.8930664 -5.9375l1.171875 0l0 5.265625l3.25 -5.265625l1.265625 0l0 6.90625l-1.171875 0l0 -5.234375l-3.25 5.234375l-1.265625 0l0 -6.90625zm11.960632 4.375l1.15625 0.15625q-0.1875 1.1875 -0.96875 1.859375q-0.78125 0.671875 -1.921875 0.671875q-1.40625 0 -2.28125 -0.921875q-0.859375 -0.9375 -0.859375 -2.65625q0 -1.125 0.375 -1.96875q0.375 -0.84375 1.125 -1.25q0.765625 -0.421875 1.65625 -0.421875q1.125 0 1.84375 0.578125q0.71875 0.5625 0.921875 1.609375l-1.140625 0.171875q-0.171875 -0.703125 -0.59375 -1.046875q-0.40625 -0.359375 -0.984375 -0.359375q-0.890625 0 -1.453125 0.640625q-0.546875 0.640625 -0.546875 2.0q0 1.40625 0.53125 2.03125q0.546875 0.625 1.40625 0.625q0.6875 0 1.140625 -0.421875q0.46875 -0.421875 0.59375 -1.296875zm6.6640625 1.671875q-0.65625 0.5625 -1.265625 0.796875q-0.59375 0.21875 -1.28125 0.21875q-1.140625 0 -1.75 -0.546875q-0.609375 -0.5625 -0.609375 -1.4375q0 -0.5 0.21875 -0.921875q0.234375 -0.421875 0.609375 -0.671875q0.375 -0.25 0.84375 -0.390625q0.34375 -0.078125 1.046875 -0.171875q1.421875 -0.171875 2.09375 -0.40625q0 -0.234375 0 -0.296875q0 -0.71875 -0.328125 -1.015625q-0.453125 -0.390625 -1.34375 -0.390625q-0.8125 0 -1.21875 0.296875q-0.390625 0.28125 -0.578125 1.015625l-1.140625 -0.15625q0.15625 -0.734375 0.515625 -1.1875q0.359375 -0.453125 1.03125 -0.6875q0.671875 -0.25 1.5625 -0.25q0.890625 0 1.4375 0.203125q0.5625 0.203125 0.8125 0.53125q0.265625 0.3125 0.375 0.796875q0.046875 0.296875 0.046875 1.078125l0 1.5625q0 1.625 0.078125 2.0625q0.078125 0.4375 0.296875 0.828125l-1.21875 0q-0.1875 -0.359375 -0.234375 -0.859375zm-0.09375 -2.609375q-0.640625 0.265625 -1.921875 0.4375q-0.71875 0.109375 -1.015625 0.25q-0.296875 0.125 -0.46875 0.375q-0.15625 0.25 -0.15625 0.546875q0 0.46875 0.34375 0.78125q0.359375 0.3125 1.046875 0.3125q0.671875 0 1.203125 -0.296875q0.53125 -0.296875 0.78125 -0.8125q0.1875 -0.390625 0.1875 -1.171875l0 -0.421875z" fill-rule="nonzero"/><path fill="#000000" d="m135.98102 387.7933l0 1.125l3.546875 0q-0.078125 1.609375 -0.890625 2.546875q-0.8125 0.921875 -2.109375 0.921875q-2.265625 0 -2.84375 -2.421875l-1.21875 0.3125q0.828125 3.15625 3.984375 3.15625q2.25 0 3.34375 -1.453125q1.109375 -1.453125 1.046875 -3.578125q0 -1.296875 -0.5 -2.375q-0.484375 -1.078125 -1.5 -1.765625q-1.015625 -0.6875 -2.421875 -0.6875q-1.484375 0 -2.484375 0.734375q-1.0 0.734375 -1.34375 2.046875l1.234375 0.328125q0.53125 -2.0 2.59375 -2.0q1.40625 0 2.1875 0.84375q0.796875 0.828125 0.875 2.265625l-3.5 0zm6.376465 -1.421875l1.171875 0l0 2.984375q0.5625 0 0.78125 -0.21875q0.21875 -0.21875 0.65625 -1.25q0.34375 -0.8125 0.5625 -1.078125q0.21875 -0.265625 0.5 -0.34375q0.28125 -0.09375 0.890625 -0.09375l0.234375 0l0 0.96875l-0.328125 -0.015625q-0.453125 0 -0.59375 0.140625q-0.125 0.140625 -0.40625 0.859375q-0.265625 0.671875 -0.5 0.9375q-0.21875 0.25 -0.671875 0.46875q0.75 0.203125 1.484375 1.40625l1.28125 2.140625l-1.296875 0l-1.25 -2.140625q-0.375 -0.640625 -0.671875 -0.84375q-0.28125 -0.21875 -0.671875 -0.21875l0 3.203125l-1.171875 0l0 -6.90625zm7.3623047 3.78125l0 -0.921875q0.75 0 1.015625 -0.046875q0.265625 -0.0625 0.5 -0.3125q0.25 -0.265625 0.25 -0.65625q0 -0.46875 -0.3125 -0.75q-0.3125 -0.296875 -0.8125 -0.296875q-1.0 0 -1.390625 1.171875l-1.109375 -0.1875q0.515625 -1.9375 2.5 -1.9375q1.109375 0 1.734375 0.609375q0.640625 0.59375 0.640625 1.4375q0 0.84375 -0.828125 1.34375q0.515625 0.28125 0.78125 0.71875q0.265625 0.421875 0.265625 1.015625q0 0.9375 -0.6875 1.515625q-0.671875 0.578125 -1.890625 0.578125q-2.359375 0 -2.734375 -2.109375l1.09375 -0.234375q0.15625 0.671875 0.609375 1.046875q0.46875 0.359375 1.046875 0.359375q0.59375 0 0.984375 -0.328125q0.40625 -0.34375 0.40625 -0.875q0 -0.390625 -0.25 -0.6875q-0.25 -0.3125 -0.53125 -0.375q-0.28125 -0.078125 -1.015625 -0.078125q-0.0625 0 -0.265625 0zm9.314026 0.90625l1.203125 0.140625q-0.28125 1.0625 -1.0625 1.65625q-0.765625 0.578125 -1.96875 0.578125q-1.515625 0 -2.40625 -0.9375q-0.890625 -0.9375 -0.890625 -2.609375q0 -1.75 0.890625 -2.703125q0.90625 -0.96875 2.34375 -0.96875q1.390625 0 2.265625 0.9375q0.875 0.9375 0.875 2.65625q0 0.109375 0 0.3125l-5.15625 0q0.0625 1.140625 0.640625 1.75q0.578125 0.59375 1.4375 0.59375q0.65625 0 1.109375 -0.328125q0.453125 -0.34375 0.71875 -1.078125zm-3.84375 -1.90625l3.859375 0q-0.078125 -0.859375 -0.4375 -1.296875q-0.5625 -0.6875 -1.453125 -0.6875q-0.8125 0 -1.359375 0.546875q-0.546875 0.53125 -0.609375 1.4375zm6.5531006 -2.78125l1.828125 0l1.8125 5.53125l2.015625 -5.53125l1.6875 0l0 6.90625l-1.171875 0l0 -5.5625l-2.046875 5.5625l-1.046875 0l-1.921875 -5.828125l0 5.828125l-1.15625 0l0 -6.90625zm9.147461 0l5.453125 0l0 6.90625l-1.171875 0l0 -5.9375l-3.109375 0l0 5.9375l-1.171875 0l0 -6.90625zm7.7797394 0l5.4375 0l0 6.90625l-1.15625 0l0 -5.9375l-3.109375 0l0 3.4375q0 1.203125 -0.078125 1.59375q-0.078125 0.375 -0.4375 0.671875q-0.34375 0.28125 -1.015625 0.28125q-0.40625 0 -0.9375 -0.046875l0 -0.984375l0.515625 0q0.359375 0 0.515625 -0.0625q0.15625 -0.078125 0.203125 -0.234375q0.0625 -0.171875 0.0625 -1.078125l0 -4.546875zm12.6362915 0l0 6.90625l-1.15625 0l0 -2.6875l-0.671875 0q-0.625 0 -0.9375 0.15625q-0.296875 0.15625 -0.875 1.015625l-1.015625 1.515625l-1.453125 0l1.265625 -1.859375q0.578125 -0.859375 1.140625 -0.96875q-1.0 -0.140625 -1.484375 -0.71875q-0.484375 -0.578125 -0.484375 -1.34375q0 -0.90625 0.625 -1.453125q0.640625 -0.5625 1.859375 -0.5625l3.1875 0zm-1.15625 0.96875l-1.671875 0q-1.046875 0 -1.359375 0.328125q-0.296875 0.3125 -0.296875 0.75q0 0.625 0.453125 0.921875q0.453125 0.28125 1.578125 0.28125l1.296875 0l0 -2.28125zm2.9359894 8.59375l0 -9.5625l1.078125 0l0 0.890625q0.375 -0.53125 0.84375 -0.78125q0.484375 -0.265625 1.15625 -0.265625q0.875 0 1.546875 0.453125q0.6875 0.453125 1.03125 1.28125q0.34375 0.828125 0.34375 1.828125q0 1.046875 -0.375 1.90625q-0.375 0.84375 -1.109375 1.296875q-0.71875 0.453125 -1.53125 0.453125q-0.578125 0 -1.046875 -0.25q-0.46875 -0.25 -0.765625 -0.625l0 3.375l-1.171875 0zm1.0625 -6.078125q0 1.34375 0.53125 1.984375q0.546875 0.625 1.3125 0.625q0.78125 0 1.34375 -0.65625q0.5625 -0.65625 0.5625 -2.046875q0 -1.3125 -0.546875 -1.96875q-0.546875 -0.671875 -1.296875 -0.671875q-0.75 0 -1.328125 0.703125q-0.578125 0.703125 -0.578125 2.03125zm14.146713 3.421875l-1.171875 0l0 -7.46875q-0.421875 0.40625 -1.109375 0.8125q-0.6875 0.40625 -1.234375 0.609375l0 -1.140625q0.984375 -0.453125 1.71875 -1.109375q0.734375 -0.671875 1.03125 -1.28125l0.765625 0l0 9.578125z" fill-rule="nonzero"/><path fill="#d0e0e3" d="m387.77954 355.39108l201.7638 0l0 50.173218l-201.7638 0z" fill-rule="evenodd"/><path stroke="#000000" stroke-width="1.0" stroke-linejoin="round" stroke-linecap="butt" d="m387.77954 355.39108l201.7638 0l0 50.173218l-201.7638 0z" fill-rule="evenodd"/><path fill="#000000" d="m397.42017 372.63705q0 -2.375 1.28125 -3.71875q1.28125 -1.34375 3.296875 -1.34375q1.3125 0 2.375 0.625q1.0625 0.625 1.609375 1.765625q0.5625 1.125 0.5625 2.5625q0 1.4375 -0.59375 2.59375q-0.578125 1.140625 -1.65625 1.734375q-1.0625 0.578125 -2.3125 0.578125q-1.34375 0 -2.40625 -0.640625q-1.0625 -0.65625 -1.609375 -1.78125q-0.546875 -1.125 -0.546875 -2.375zm1.3125 0.015625q0 1.71875 0.921875 2.71875q0.921875 0.984375 2.328125 0.984375q1.421875 0 2.34375 -1.0q0.921875 -1.0 0.921875 -2.84375q0 -1.15625 -0.40625 -2.03125q-0.390625 -0.875 -1.15625 -1.34375q-0.75 -0.484375 -1.6875 -0.484375q-1.34375 0 -2.3125 0.921875q-0.953125 0.921875 -0.953125 3.078125zm8.66391 -2.28125l5.609375 0l0 0.96875l-2.21875 0l0 5.9375l-1.171875 0l0 -5.9375l-2.21875 0l0 -0.96875zm11.245026 4.375l1.15625 0.15625q-0.1875 1.1875 -0.96875 1.859375q-0.78125 0.671875 -1.921875 0.671875q-1.40625 0 -2.28125 -0.921875q-0.859375 -0.9375 -0.859375 -2.65625q0 -1.125 0.375 -1.96875q0.375 -0.84375 1.125 -1.25q0.765625 -0.421875 1.65625 -0.421875q1.125 0 1.84375 0.578125q0.71875 0.5625 0.921875 1.609375l-1.140625 0.171875q-0.171875 -0.703125 -0.59375 -1.046875q-0.40625 -0.359375 -0.984375 -0.359375q-0.890625 0 -1.453125 0.640625q-0.546875 0.640625 -0.546875 2.0q0 1.40625 0.53125 2.03125q0.546875 0.625 1.40625 0.625q0.6875 0 1.140625 -0.421875q0.46875 -0.421875 0.59375 -1.296875zm6.8828125 0.3125l1.203125 0.140625q-0.28125 1.0625 -1.0625 1.65625q-0.765625 0.578125 -1.96875 0.578125q-1.515625 0 -2.40625 -0.9375q-0.890625 -0.9375 -0.890625 -2.609375q0 -1.75 0.890625 -2.703125q0.90625 -0.96875 2.34375 -0.96875q1.390625 0 2.265625 0.9375q0.875 0.9375 0.875 2.65625q0 0.109375 0 0.3125l-5.15625 0q0.0625 1.140625 0.640625 1.75q0.578125 0.59375 1.4375 0.59375q0.65625 0 1.109375 -0.328125q0.453125 -0.34375 0.71875 -1.078125zm-3.84375 -1.90625l3.859375 0q-0.078125 -0.859375 -0.4375 -1.296875q-0.5625 -0.6875 -1.453125 -0.6875q-0.8125 0 -1.359375 0.546875q-0.546875 0.53125 -0.609375 1.4375zm6.5218506 -2.78125l1.171875 0l0 2.984375q0.5625 0 0.78125 -0.21875q0.21875 -0.21875 0.65625 -1.25q0.34375 -0.8125 0.5625 -1.078125q0.21875 -0.265625 0.5 -0.34375q0.28125 -0.09375 0.890625 -0.09375l0.234375 0l0 0.96875l-0.328125 -0.015625q-0.453125 0 -0.59375 0.140625q-0.125 0.140625 -0.40625 0.859375q-0.265625 0.671875 -0.5 0.9375q-0.21875 0.25 -0.671875 0.46875q0.75 0.203125 1.484375 1.40625l1.28125 2.140625l-1.296875 0l-1.25 -2.140625q-0.375 -0.640625 -0.671875 -0.84375q-0.28125 -0.21875 -0.671875 -0.21875l0 3.203125l-1.171875 0l0 -6.90625zm11.784027 9.71875q-0.984375 -1.234375 -1.65625 -2.875q-0.65625 -1.640625 -0.65625 -3.390625q0 -1.546875 0.5 -2.96875q0.578125 -1.640625 1.8125 -3.28125l0.828125 0q-0.78125 1.359375 -1.03125 1.9375q-0.40625 0.890625 -0.625 1.875q-0.28125 1.21875 -0.28125 2.4375q0 3.140625 1.9375 6.265625l-0.828125 0zm2.188385 -9.71875l1.171875 0l0 2.984375q0.5625 0 0.78125 -0.21875q0.21875 -0.21875 0.65625 -1.25q0.34375 -0.8125 0.5625 -1.078125q0.21875 -0.265625 0.5 -0.34375q0.28125 -0.09375 0.890625 -0.09375l0.234375 0l0 0.96875l-0.328125 -0.015625q-0.453125 0 -0.59375 0.140625q-0.125 0.140625 -0.40625 0.859375q-0.265625 0.671875 -0.5 0.9375q-0.21875 0.25 -0.671875 0.46875q0.75 0.203125 1.484375 1.40625l1.28125 2.140625l-1.296875 0l-1.25 -2.140625q-0.375 -0.640625 -0.671875 -0.84375q-0.28125 -0.21875 -0.671875 -0.21875l0 3.203125l-1.171875 0l0 -6.90625zm5.3935547 3.453125q0 -1.921875 1.078125 -2.84375q0.890625 -0.765625 2.171875 -0.765625q1.421875 0 2.328125 0.9375q0.90625 0.921875 0.90625 2.578125q0 1.328125 -0.40625 2.09375q-0.390625 0.765625 -1.15625 1.1875q-0.765625 0.421875 -1.671875 0.421875q-1.453125 0 -2.359375 -0.921875q-0.890625 -0.9375 -0.890625 -2.6875zm1.203125 0q0 1.328125 0.578125 1.984375q0.59375 0.65625 1.46875 0.65625q0.875 0 1.453125 -0.65625q0.578125 -0.671875 0.578125 -2.03125q0 -1.28125 -0.59375 -1.9375q-0.578125 -0.65625 -1.4375 -0.65625q-0.875 0 -1.46875 0.65625q-0.578125 0.65625 -0.578125 1.984375zm6.6624756 -3.453125l1.171875 0l0 2.875l3.234375 0l0 -2.875l1.171875 0l0 6.90625l-1.171875 0l0 -3.0625l-3.234375 0l0 3.0625l-1.171875 0l0 -6.90625zm6.7197876 0l5.609375 0l0 0.96875l-2.21875 0l0 5.9375l-1.171875 0l0 -5.9375l-2.21875 0l0 -0.96875zm11.463745 4.6875l1.203125 0.140625q-0.28125 1.0625 -1.0625 1.65625q-0.765625 0.578125 -1.96875 0.578125q-1.515625 0 -2.40625 -0.9375q-0.890625 -0.9375 -0.890625 -2.609375q0 -1.75 0.890625 -2.703125q0.90625 -0.96875 2.34375 -0.96875q1.390625 0 2.265625 0.9375q0.875 0.9375 0.875 2.65625q0 0.109375 0 0.3125l-5.15625 0q0.0625 1.140625 0.640625 1.75q0.578125 0.59375 1.4375 0.59375q0.65625 0 1.109375 -0.328125q0.453125 -0.34375 0.71875 -1.078125zm-3.84375 -1.90625l3.859375 0q-0.078125 -0.859375 -0.4375 -1.296875q-0.5625 -0.6875 -1.453125 -0.6875q-0.8125 0 -1.359375 0.546875q-0.546875 0.53125 -0.609375 1.4375zm6.5218506 -2.78125l1.171875 0l0 5.265625l3.25 -5.265625l1.265625 0l0 6.90625l-1.171875 0l0 -5.234375l-3.25 5.234375l-1.265625 0l0 -6.90625zm4.46875 -2.625l0.796875 0q-0.09375 0.8125 -0.59375 1.25q-0.5 0.4375 -1.328125 0.4375q-0.828125 0 -1.328125 -0.421875q-0.5 -0.4375 -0.59375 -1.265625l0.796875 0q0.09375 0.453125 0.359375 0.671875q0.28125 0.203125 0.734375 0.203125q0.53125 0 0.796875 -0.203125q0.265625 -0.21875 0.359375 -0.671875zm2.9918823 2.625l1.171875 0l0 2.875l3.234375 0l0 -2.875l1.171875 0l0 6.90625l-1.171875 0l0 -3.0625l-3.234375 0l0 3.0625l-1.171875 0l0 -6.90625zm12.079163 4.6875l1.203125 0.140625q-0.28125 1.0625 -1.0625 1.65625q-0.765625 0.578125 -1.96875 0.578125q-1.515625 0 -2.40625 -0.9375q-0.890625 -0.9375 -0.890625 -2.609375q0 -1.75 0.890625 -2.703125q0.90625 -0.96875 2.34375 -0.96875q1.390625 0 2.265625 0.9375q0.875 0.9375 0.875 2.65625q0 0.109375 0 0.3125l-5.15625 0q0.0625 1.140625 0.640625 1.75q0.578125 0.59375 1.4375 0.59375q0.65625 0 1.109375 -0.328125q0.453125 -0.34375 0.71875 -1.078125zm-3.84375 -1.90625l3.859375 0q-0.078125 -0.859375 -0.4375 -1.296875q-0.5625 -0.6875 -1.453125 -0.6875q-0.8125 0 -1.359375 0.546875q-0.546875 0.53125 -0.609375 1.4375zm6.5218506 6.78125l0 -9.5625l1.078125 0l0 0.890625q0.375 -0.53125 0.84375 -0.78125q0.484375 -0.265625 1.15625 -0.265625q0.875 0 1.546875 0.453125q0.6875 0.453125 1.03125 1.28125q0.34375 0.828125 0.34375 1.828125q0 1.046875 -0.375 1.90625q-0.375 0.84375 -1.109375 1.296875q-0.71875 0.453125 -1.53125 0.453125q-0.578125 0 -1.046875 -0.25q-0.46875 -0.25 -0.765625 -0.625l0 3.375l-1.171875 0zm1.0625 -6.078125q0 1.34375 0.53125 1.984375q0.546875 0.625 1.3125 0.625q0.78125 0 1.34375 -0.65625q0.5625 -0.65625 0.5625 -2.046875q0 -1.3125 -0.546875 -1.96875q-0.546875 -0.671875 -1.296875 -0.671875q-0.75 0 -1.328125 0.703125q-0.578125 0.703125 -0.578125 2.03125zm7.1156006 6.234375l-0.828125 0q1.9375 -3.125 1.9375 -6.265625q0 -1.21875 -0.28125 -2.421875q-0.21875 -0.984375 -0.609375 -1.875q-0.265625 -0.59375 -1.046875 -1.953125l0.828125 0q1.234375 1.640625 1.8125 3.28125q0.5 1.421875 0.5 2.96875q0 1.75 -0.671875 3.390625q-0.671875 1.640625 -1.640625 2.875zm11.891357 -5.34375l1.15625 0.15625q-0.1875 1.1875 -0.96875 1.859375q-0.78125 0.671875 -1.921875 0.671875q-1.40625 0 -2.28125 -0.921875q-0.859375 -0.9375 -0.859375 -2.65625q0 -1.125 0.375 -1.96875q0.375 -0.84375 1.125 -1.25q0.765625 -0.421875 1.65625 -0.421875q1.125 0 1.84375 0.578125q0.71875 0.5625 0.921875 1.609375l-1.140625 0.171875q-0.171875 -0.703125 -0.59375 -1.046875q-0.40625 -0.359375 -0.984375 -0.359375q-0.890625 0 -1.453125 0.640625q-0.546875 0.640625 -0.546875 2.0q0 1.40625 0.53125 2.03125q0.546875 0.625 1.40625 0.625q0.6875 0 1.140625 -0.421875q0.46875 -0.421875 0.59375 -1.296875zm6.8828125 0.3125l1.203125 0.140625q-0.28125 1.0625 -1.0625 1.65625q-0.765625 0.578125 -1.96875 0.578125q-1.515625 0 -2.40625 -0.9375q-0.890625 -0.9375 -0.890625 -2.609375q0 -1.75 0.890625 -2.703125q0.90625 -0.96875 2.34375 -0.96875q1.390625 0 2.265625 0.9375q0.875 0.9375 0.875 2.65625q0 0.109375 0 0.3125l-5.15625 0q0.0625 1.140625 0.640625 1.75q0.578125 0.59375 1.4375 0.59375q0.65625 0 1.109375 -0.328125q0.453125 -0.34375 0.71875 -1.078125zm-3.84375 -1.90625l3.859375 0q-0.078125 -0.859375 -0.4375 -1.296875q-0.5625 -0.6875 -1.453125 -0.6875q-0.8125 0 -1.359375 0.546875q-0.546875 0.53125 -0.609375 1.4375zm6.5218506 6.78125l0 -9.5625l1.078125 0l0 0.890625q0.375 -0.53125 0.84375 -0.78125q0.484375 -0.265625 1.15625 -0.265625q0.875 0 1.546875 0.453125q0.6875 0.453125 1.03125 1.28125q0.34375 0.828125 0.34375 1.828125q0 1.046875 -0.375 1.90625q-0.375 0.84375 -1.109375 1.296875q-0.71875 0.453125 -1.53125 0.453125q-0.578125 0 -1.046875 -0.25q-0.46875 -0.25 -0.765625 -0.625l0 3.375l-1.171875 0zm1.0625 -6.078125q0 1.34375 0.53125 1.984375q0.546875 0.625 1.3125 0.625q0.78125 0 1.34375 -0.65625q0.5625 -0.65625 0.5625 -2.046875q0 -1.3125 -0.546875 -1.96875q-0.546875 -0.671875 -1.296875 -0.671875q-0.75 0 -1.328125 0.703125q-0.578125 0.703125 -0.578125 2.03125zm6.3656006 -3.484375l2.6875 0q1.0 0 1.484375 0.171875q0.484375 0.15625 0.828125 0.609375q0.359375 0.4375 0.359375 1.046875q0 0.5 -0.203125 0.875q-0.203125 0.359375 -0.625 0.609375q0.5 0.15625 0.8125 0.609375q0.328125 0.4375 0.328125 1.046875q-0.0625 0.984375 -0.703125 1.46875q-0.640625 0.46875 -1.859375 0.46875l-3.109375 0l0 -6.90625zm1.171875 2.90625l1.25 0q0.734375 0 1.015625 -0.078125q0.28125 -0.078125 0.5 -0.3125q0.234375 -0.25 0.234375 -0.578125q0 -0.546875 -0.390625 -0.75q-0.390625 -0.21875 -1.328125 -0.21875l-1.28125 0l0 1.9375zm0 3.03125l1.53125 0q1.0 0 1.375 -0.21875q0.375 -0.234375 0.390625 -0.796875q0 -0.34375 -0.21875 -0.625q-0.21875 -0.28125 -0.5625 -0.359375q-0.34375 -0.078125 -1.109375 -0.078125l-1.40625 0l0 2.078125zm5.8930664 -5.9375l1.171875 0l0 5.265625l3.25 -5.265625l1.265625 0l0 6.90625l-1.171875 0l0 -5.234375l-3.25 5.234375l-1.265625 0l0 -6.90625zm11.960632 4.375l1.15625 0.15625q-0.1875 1.1875 -0.96875 1.859375q-0.78125 0.671875 -1.921875 0.671875q-1.40625 0 -2.28125 -0.921875q-0.859375 -0.9375 -0.859375 -2.65625q0 -1.125 0.375 -1.96875q0.375 -0.84375 1.125 -1.25q0.765625 -0.421875 1.65625 -0.421875q1.125 0 1.84375 0.578125q0.71875 0.5625 0.921875 1.609375l-1.140625 0.171875q-0.171875 -0.703125 -0.59375 -1.046875q-0.40625 -0.359375 -0.984375 -0.359375q-0.890625 0 -1.453125 0.640625q-0.546875 0.640625 -0.546875 2.0q0 1.40625 0.53125 2.03125q0.546875 0.625 1.40625 0.625q0.6875 0 1.140625 -0.421875q0.46875 -0.421875 0.59375 -1.296875zm6.6640625 1.671875q-0.65625 0.5625 -1.265625 0.796875q-0.59375 0.21875 -1.28125 0.21875q-1.140625 0 -1.75 -0.546875q-0.609375 -0.5625 -0.609375 -1.4375q0 -0.5 0.21875 -0.921875q0.234375 -0.421875 0.609375 -0.671875q0.375 -0.25 0.84375 -0.390625q0.34375 -0.078125 1.046875 -0.171875q1.421875 -0.171875 2.09375 -0.40625q0 -0.234375 0 -0.296875q0 -0.71875 -0.328125 -1.015625q-0.453125 -0.390625 -1.34375 -0.390625q-0.8125 0 -1.21875 0.296875q-0.390625 0.28125 -0.578125 1.015625l-1.140625 -0.15625q0.15625 -0.734375 0.515625 -1.1875q0.359375 -0.453125 1.03125 -0.6875q0.671875 -0.25 1.5625 -0.25q0.890625 0 1.4375 0.203125q0.5625 0.203125 0.8125 0.53125q0.265625 0.3125 0.375 0.796875q0.046875 0.296875 0.046875 1.078125l0 1.5625q0 1.625 0.078125 2.0625q0.078125 0.4375 0.296875 0.828125l-1.21875 0q-0.1875 -0.359375 -0.234375 -0.859375zm-0.09375 -2.609375q-0.640625 0.265625 -1.921875 0.4375q-0.71875 0.109375 -1.015625 0.25q-0.296875 0.125 -0.46875 0.375q-0.15625 0.25 -0.15625 0.546875q0 0.46875 0.34375 0.78125q0.359375 0.3125 1.046875 0.3125q0.671875 0 1.203125 -0.296875q0.53125 -0.296875 0.78125 -0.8125q0.1875 -0.390625 0.1875 -1.171875l0 -0.421875z" fill-rule="nonzero"/><path fill="#000000" d="m400.85767 387.7933l0 1.125l3.546875 0q-0.078125 1.609375 -0.890625 2.546875q-0.8125 0.921875 -2.109375 0.921875q-2.265625 0 -2.84375 -2.421875l-1.21875 0.3125q0.828125 3.15625 3.984375 3.15625q2.25 0 3.34375 -1.453125q1.109375 -1.453125 1.046875 -3.578125q0 -1.296875 -0.5 -2.375q-0.484375 -1.078125 -1.5 -1.765625q-1.015625 -0.6875 -2.421875 -0.6875q-1.484375 0 -2.484375 0.734375q-1.0 0.734375 -1.34375 2.046875l1.234375 0.328125q0.53125 -2.0 2.59375 -2.0q1.40625 0 2.1875 0.84375q0.796875 0.828125 0.875 2.265625l-3.5 0zm6.376465 -1.421875l1.171875 0l0 2.984375q0.5625 0 0.78125 -0.21875q0.21875 -0.21875 0.65625 -1.25q0.34375 -0.8125 0.5625 -1.078125q0.21875 -0.265625 0.5 -0.34375q0.28125 -0.09375 0.890625 -0.09375l0.234375 0l0 0.96875l-0.328125 -0.015625q-0.453125 0 -0.59375 0.140625q-0.125 0.140625 -0.40625 0.859375q-0.265625 0.671875 -0.5 0.9375q-0.21875 0.25 -0.671875 0.46875q0.75 0.203125 1.484375 1.40625l1.28125 2.140625l-1.296875 0l-1.25 -2.140625q-0.375 -0.640625 -0.671875 -0.84375q-0.28125 -0.21875 -0.671875 -0.21875l0 3.203125l-1.171875 0l0 -6.90625zm7.3623047 3.78125l0 -0.921875q0.75 0 1.015625 -0.046875q0.265625 -0.0625 0.5 -0.3125q0.25 -0.265625 0.25 -0.65625q0 -0.46875 -0.3125 -0.75q-0.3125 -0.296875 -0.8125 -0.296875q-1.0 0 -1.390625 1.171875l-1.109375 -0.1875q0.515625 -1.9375 2.5 -1.9375q1.109375 0 1.734375 0.609375q0.640625 0.59375 0.640625 1.4375q0 0.84375 -0.828125 1.34375q0.515625 0.28125 0.78125 0.71875q0.265625 0.421875 0.265625 1.015625q0 0.9375 -0.6875 1.515625q-0.671875 0.578125 -1.890625 0.578125q-2.359375 0 -2.734375 -2.109375l1.09375 -0.234375q0.15625 0.671875 0.609375 1.046875q0.46875 0.359375 1.046875 0.359375q0.59375 0 0.984375 -0.328125q0.40625 -0.34375 0.40625 -0.875q0 -0.390625 -0.25 -0.6875q-0.25 -0.3125 -0.53125 -0.375q-0.28125 -0.078125 -1.015625 -0.078125q-0.0625 0 -0.265625 0zm9.314026 0.90625l1.203125 0.140625q-0.28125 1.0625 -1.0625 1.65625q-0.765625 0.578125 -1.96875 0.578125q-1.515625 0 -2.40625 -0.9375q-0.890625 -0.9375 -0.890625 -2.609375q0 -1.75 0.890625 -2.703125q0.90625 -0.96875 2.34375 -0.96875q1.390625 0 2.265625 0.9375q0.875 0.9375 0.875 2.65625q0 0.109375 0 0.3125l-5.15625 0q0.0625 1.140625 0.640625 1.75q0.578125 0.59375 1.4375 0.59375q0.65625 0 1.109375 -0.328125q0.453125 -0.34375 0.71875 -1.078125zm-3.84375 -1.90625l3.859375 0q-0.078125 -0.859375 -0.4375 -1.296875q-0.5625 -0.6875 -1.453125 -0.6875q-0.8125 0 -1.359375 0.546875q-0.546875 0.53125 -0.609375 1.4375zm6.5531006 -2.78125l1.828125 0l1.8125 5.53125l2.015625 -5.53125l1.6875 0l0 6.90625l-1.171875 0l0 -5.5625l-2.046875 5.5625l-1.046875 0l-1.921875 -5.828125l0 5.828125l-1.15625 0l0 -6.90625zm9.147461 0l5.453125 0l0 6.90625l-1.171875 0l0 -5.9375l-3.109375 0l0 5.9375l-1.171875 0l0 -6.90625zm7.779724 0l5.4375 0l0 6.90625l-1.15625 0l0 -5.9375l-3.109375 0l0 3.4375q0 1.203125 -0.078125 1.59375q-0.078125 0.375 -0.4375 0.671875q-0.34375 0.28125 -1.015625 0.28125q-0.40625 0 -0.9375 -0.046875l0 -0.984375l0.515625 0q0.359375 0 0.515625 -0.0625q0.15625 -0.078125 0.203125 -0.234375q0.0625 -0.171875 0.0625 -1.078125l0 -4.546875zm12.6362915 0l0 6.90625l-1.15625 0l0 -2.6875l-0.671875 0q-0.625 0 -0.9375 0.15625q-0.296875 0.15625 -0.875 1.015625l-1.015625 1.515625l-1.453125 0l1.265625 -1.859375q0.578125 -0.859375 1.140625 -0.96875q-1.0 -0.140625 -1.484375 -0.71875q-0.484375 -0.578125 -0.484375 -1.34375q0 -0.90625 0.625 -1.453125q0.640625 -0.5625 1.859375 -0.5625l3.1875 0zm-1.15625 0.96875l-1.671875 0q-1.046875 0 -1.359375 0.328125q-0.296875 0.3125 -0.296875 0.75q0 0.625 0.453125 0.921875q0.453125 0.28125 1.578125 0.28125l1.296875 0l0 -2.28125zm2.9360046 8.59375l0 -9.5625l1.078125 0l0 0.890625q0.375 -0.53125 0.84375 -0.78125q0.484375 -0.265625 1.15625 -0.265625q0.875 0 1.546875 0.453125q0.6875 0.453125 1.03125 1.28125q0.34375 0.828125 0.34375 1.828125q0 1.046875 -0.375 1.90625q-0.375 0.84375 -1.109375 1.296875q-0.71875 0.453125 -1.53125 0.453125q-0.578125 0 -1.046875 -0.25q-0.46875 -0.25 -0.765625 -0.625l0 3.375l-1.171875 0zm1.0625 -6.078125q0 1.34375 0.53125 1.984375q0.546875 0.625 1.3125 0.625q0.78125 0 1.34375 -0.65625q0.5625 -0.65625 0.5625 -2.046875q0 -1.3125 -0.546875 -1.96875q-0.546875 -0.671875 -1.296875 -0.671875q-0.75 0 -1.328125 0.703125q-0.578125 0.703125 -0.578125 2.03125zm10.193573 3.421875l0 -9.546875l1.296875 0l5.015625 7.5l0 -7.5l1.203125 0l0 9.546875l-1.296875 0l-5.015625 -7.5l0 7.5l-1.203125 0z" fill-rule="nonzero"/><path fill="#000000" fill-opacity="0.0" d="m336.42783 358.96588l39.590546 0l0 43.02362l-39.590546 0z" fill-rule="evenodd"/><path fill="#000000" d="m347.11533 385.88586l0 -1.875l1.875 0l0 1.875l-1.875 0zm5.1832886 0l0 -1.875l1.875 0l0 1.875l-1.875 0zm5.183319 0l0 -1.875l1.875 0l0 1.875l-1.875 0z" fill-rule="nonzero"/><path fill="#000000" fill-opacity="0.0" d="m439.7139 313.1916l-215.937 42.204742" fill-rule="evenodd"/><path stroke="#000000" stroke-width="1.0" stroke-linejoin="round" stroke-linecap="butt" d="m439.7139 313.1916l-210.04842 41.053802" fill-rule="evenodd"/><path fill="#000000" stroke="#000000" stroke-width="1.0" stroke-linecap="butt" d="m229.34865 352.62436l-4.1369934 2.4915466l4.7706604 0.7505493z" fill-rule="evenodd"/><path fill="#000000" fill-opacity="0.0" d="m439.7139 313.1916l48.944885 42.204742" fill-rule="evenodd"/><path stroke="#000000" stroke-width="1.0" stroke-linejoin="round" stroke-linecap="butt" d="m439.7139 313.1916l44.40094 38.2865" fill-rule="evenodd"/><path fill="#000000" stroke="#000000" stroke-width="1.0" stroke-linecap="butt" d="m483.0362 352.729l4.5154724 1.7126465l-2.3581848 -4.214447z" fill-rule="evenodd"/></g></svg>